<svg width="55" height="55" viewBox="0 0 55 55" fill="none" xmlns="http://www.w3.org/2000/svg">
<circle cx="27.5" cy="27.5" r="23" stroke="url(#paint0_linear_98_82467)"/>
<path d="M38.2584 27.9281L38.9676 27.5L38.2584 27.0719L21.7584 17.1126L21 16.6549L21 17.5407L21 37.4593L21 38.3451L21.7584 37.8874L38.2584 27.9281Z" stroke="url(#paint1_linear_98_82467)"/>
<g filter="url(#filter0_f_98_82467)">
<path d="M38.2584 27.9281L38.9676 27.5L38.2584 27.0719L21.7584 17.1126L21 16.6549L21 17.5407L21 37.4593L21 38.3451L21.7584 37.8874L38.2584 27.9281Z" stroke="url(#paint2_linear_98_82467)"/>
</g>
<g filter="url(#filter1_f_98_82467)">
<circle cx="27.5" cy="27.5" r="23" stroke="url(#paint3_linear_98_82467)"/>
</g>
<defs>
<filter id="filter0_f_98_82467" x="16.5" y="11.769" width="27.4351" height="31.4619" filterUnits="userSpaceOnUse" color-interpolation-filters="sRGB">
<feFlood flood-opacity="0" result="BackgroundImageFix"/>
<feBlend mode="normal" in="SourceGraphic" in2="BackgroundImageFix" result="shape"/>
<feGaussianBlur stdDeviation="2" result="effect1_foregroundBlur_98_82467"/>
</filter>
<filter id="filter1_f_98_82467" x="0" y="0" width="55" height="55" filterUnits="userSpaceOnUse" color-interpolation-filters="sRGB">
<feFlood flood-opacity="0" result="BackgroundImageFix"/>
<feBlend mode="normal" in="SourceGraphic" in2="BackgroundImageFix" result="shape"/>
<feGaussianBlur stdDeviation="2" result="effect1_foregroundBlur_98_82467"/>
</filter>
<linearGradient id="paint0_linear_98_82467" x1="27.5" y1="4" x2="27.5" y2="51" gradientUnits="userSpaceOnUse">
<stop stop-color="#33E9E9"/>
<stop offset="0.453276" stop-color="#A9FF1C"/>
<stop offset="0.586956" stop-color="#165400"/>
<stop offset="0.9999" stop-color="#05FFFF"/>
<stop offset="1" stop-opacity="0"/>
</linearGradient>
<linearGradient id="paint1_linear_98_82467" x1="38" y1="17" x2="13.5" y2="32.5" gradientUnits="userSpaceOnUse">
<stop stop-color="#33E9E9"/>
<stop offset="0.4375" stop-color="#A9FF1C"/>
<stop offset="1" stop-color="#33E9E9"/>
<stop offset="1" stop-color="#33E9E9"/>
</linearGradient>
<linearGradient id="paint2_linear_98_82467" x1="38" y1="17" x2="13.5" y2="32.5" gradientUnits="userSpaceOnUse">
<stop stop-color="#33E9E9"/>
<stop offset="0.519793" stop-color="#33E9E9"/>
<stop offset="1" stop-color="#A9FF1C"/>
</linearGradient>
<linearGradient id="paint3_linear_98_82467" x1="27.5" y1="4" x2="27.5" y2="51" gradientUnits="userSpaceOnUse">
<stop stop-color="#33E9E9"/>
<stop offset="0.453276" stop-color="#A9FF1C"/>
<stop offset="0.586956" stop-color="#165400"/>
<stop offset="0.9999" stop-color="#05FFFF"/>
<stop offset="1" stop-opacity="0"/>
</linearGradient>
</defs>
</svg>
