<svg width="707" height="232" viewBox="0 0 707 232" fill="none" xmlns="http://www.w3.org/2000/svg">
<path d="M98.44 229V185.32H123.56L143.4 229H165.8L143.56 181C157.32 175.4 164.68 164.2 164.68 148.52C164.68 125.48 149.16 112.04 122.6 112.04H77.96V229H98.44ZM98.44 130.28H122.6C135.56 130.28 143.24 136.84 143.24 148.52C143.24 160.36 135.56 167.24 122.6 167.24H98.44V130.28ZM210.403 231.08C231.043 231.08 245.443 220.68 248.803 203.4H230.723C228.483 210.92 221.443 215.08 210.723 215.08C197.763 215.08 190.403 208.04 188.963 194.12L248.483 193.96V188.04C248.483 163.4 233.443 147.56 209.763 147.56C186.563 147.56 170.403 164.68 170.403 189.48C170.403 213.96 186.883 231.08 210.403 231.08ZM209.923 163.56C221.603 163.56 229.123 170.76 229.123 181.64H189.443C191.363 169.8 198.403 163.56 209.923 163.56ZM276.508 229H295.548L306.428 195.08C310.428 182.12 311.868 176.52 312.668 172.84C313.308 176.84 315.068 184.36 318.268 194.76L329.148 229H347.388L374.748 149.96H354.108L343.548 183.88C342.108 188.84 339.548 198.28 338.268 204.2C337.308 198.92 334.108 187.08 333.148 183.88L322.588 149.96H302.748L291.868 183.88C289.308 191.72 287.868 196.68 286.428 204.36C284.988 197 283.388 190.12 281.628 183.88L271.228 149.96H250.908L276.508 229ZM404.581 231.08C416.901 231.08 427.621 225.48 430.981 217.32L432.421 229H449.541V181C449.541 159.08 436.421 147.56 415.141 147.56C393.701 147.56 379.621 158.76 379.621 175.88H396.261C396.261 167.56 402.661 162.76 414.181 162.76C424.101 162.76 430.501 167.08 430.501 177.8V179.56L406.821 181.32C388.101 182.76 377.541 191.88 377.541 206.44C377.541 221.32 387.781 231.08 404.581 231.08ZM410.981 216.36C402.181 216.36 397.381 212.84 397.381 205.64C397.381 199.24 402.021 195.24 414.181 194.12L430.661 192.84V197C430.661 209.16 422.981 216.36 410.981 216.36ZM516.718 149.64C513.518 148.84 510.798 148.52 508.078 148.52C497.518 148.52 489.998 153.8 486.638 161.64L485.518 150.12H467.118V229H486.638V190.6C486.638 175.24 495.438 167.72 509.518 167.72H516.718V149.64ZM558.154 231.08C570.154 231.08 580.394 225.8 585.194 216.68L586.474 229H604.394V109.96H585.034V160.04C580.074 152.2 570.314 147.56 559.274 147.56C535.434 147.56 521.034 165.16 521.034 189.8C521.034 214.28 535.274 231.08 558.154 231.08ZM562.474 213.16C548.874 213.16 540.554 203.24 540.554 189.16C540.554 175.08 548.874 165 562.474 165C576.074 165 584.874 174.92 584.874 189.16C584.874 203.4 576.074 213.16 562.474 213.16ZM617.056 205C617.056 220.52 629.536 231.08 649.216 231.08C668.736 231.08 682.336 221.16 682.336 205.16C682.336 193 675.616 186.92 662.336 183.88L648.096 180.52C641.376 178.92 637.856 176.04 637.856 171.56C637.856 165.64 642.336 162.12 650.016 162.12C657.536 162.12 662.016 166.44 662.176 173.16H680.736C680.576 157.8 668.576 147.56 650.816 147.56C632.576 147.56 619.456 156.84 619.456 172.36C619.456 185 626.336 191.72 640.576 194.92L654.816 198.28C661.856 199.88 663.936 202.76 663.936 206.76C663.936 212.52 658.976 216.2 649.856 216.2C640.896 216.2 635.776 211.88 635.616 205H617.056Z" fill="#33E9E9"/>
<path d="M21.35 159V160H22.35V159H21.35ZM21.35 118.05V117.05H20.35V118.05H21.35ZM44.9 118.05L45.8105 117.636L45.5441 117.05H44.9V118.05ZM63.5 159L62.5895 159.414L62.8559 160H63.5V159ZM84.5 159V160H86.0655L85.4073 158.58L84.5 159ZM63.65 114L63.273 113.074L62.3019 113.469L62.7427 114.42L63.65 114ZM2.15 49.35V48.35H1.15V49.35H2.15ZM2.15 159H1.15V160H2.15V159ZM21.35 66.45V65.45H20.35V66.45H21.35ZM21.35 101.1H20.35V102.1H21.35V101.1ZM22.35 159V118.05H20.35V159H22.35ZM21.35 119.05H44.9V117.05H21.35V119.05ZM43.9895 118.464L62.5895 159.414L64.4105 158.586L45.8105 117.636L43.9895 118.464ZM63.5 160H84.5V158H63.5V160ZM85.4073 158.58L64.5573 113.58L62.7427 114.42L83.5927 159.42L85.4073 158.58ZM64.027 114.926C70.6402 112.235 75.7623 108.176 79.2252 102.865C82.6864 97.5564 84.45 91.0585 84.45 83.55H82.45C82.45 90.7415 80.7636 96.8436 77.5498 101.773C74.3377 106.699 69.5598 110.515 63.273 113.074L64.027 114.926ZM84.45 83.55C84.45 72.5125 80.7234 63.6661 73.7174 57.5943C66.7313 51.5397 56.6074 48.35 44 48.35V50.35C56.2926 50.35 65.8937 53.4603 72.4076 59.1057C78.9016 64.7339 82.45 72.9875 82.45 83.55H84.45ZM44 48.35H2.15V50.35H44V48.35ZM1.15 49.35V159H3.15V49.35H1.15ZM2.15 160H21.35V158H2.15V160ZM21.35 67.45H44V65.45H21.35V67.45ZM44 67.45C49.9178 67.45 54.4912 68.9478 57.5724 71.6461C60.6344 74.3274 62.35 78.3055 62.35 83.55H64.35C64.35 77.8445 62.4656 73.2725 58.8901 70.1414C55.3338 67.0272 50.2322 65.45 44 65.45V67.45ZM62.35 83.55C62.35 88.875 60.6304 92.9708 57.5607 95.7457C54.4771 98.5331 49.9064 100.1 44 100.1V102.1C50.2436 102.1 55.3479 100.442 58.9018 97.2293C62.4696 94.0042 64.35 89.325 64.35 83.55H62.35ZM44 100.1H21.35V102.1H44V100.1ZM22.35 101.1V66.45H20.35V101.1H22.35ZM162.315 135L163.296 135.191L163.528 134H162.315V135ZM145.365 135V134H144.619L144.406 134.715L145.365 135ZM106.215 126.3L106.212 125.3L105.106 125.303L105.22 126.403L106.215 126.3ZM162.015 126.15L162.018 127.15L163.015 127.147V126.15H162.015ZM143.865 114.6V115.6H144.865V114.6H143.865ZM106.665 114.6L105.678 114.44L105.49 115.6H106.665V114.6ZM126.315 161.95C136.154 161.95 144.584 159.471 150.975 154.861C157.376 150.244 161.675 143.531 163.296 135.191L161.333 134.809C159.805 142.669 155.778 148.931 149.805 153.239C143.821 157.554 135.825 159.95 126.315 159.95V161.95ZM162.315 134H145.365V136H162.315V134ZM144.406 134.715C142.481 141.178 136.42 144.95 126.615 144.95V146.95C136.91 146.95 144.048 142.922 146.323 135.285L144.406 134.715ZM126.615 144.95C120.723 144.95 116.236 143.354 113.058 140.298C109.87 137.233 107.869 132.575 107.21 126.197L105.22 126.403C105.91 133.075 108.034 138.242 111.672 141.74C115.319 145.246 120.357 146.95 126.615 146.95V144.95ZM106.218 127.3L162.018 127.15L162.012 125.15L106.212 125.3L106.218 127.3ZM163.015 126.15V120.6H161.015V126.15H163.015ZM163.015 120.6C163.015 108.847 159.425 99.0936 152.913 92.272C146.397 85.4454 137.045 81.65 125.715 81.65V83.65C136.584 83.65 145.383 87.2796 151.466 93.653C157.555 100.031 161.015 109.253 161.015 120.6H163.015ZM125.715 81.65C114.583 81.65 105.088 85.763 98.3801 92.8962C91.6765 100.025 87.8148 110.106 87.8148 121.95H89.8148C89.8148 110.544 93.5282 100.975 99.8371 94.2663C106.142 87.562 115.097 83.65 125.715 83.65V81.65ZM87.8148 121.95C87.8148 133.653 91.7573 143.661 98.5754 150.749C105.396 157.841 115.038 161.95 126.315 161.95V159.95C115.542 159.95 106.434 156.034 100.017 149.363C93.5974 142.689 89.8148 133.197 89.8148 121.95H87.8148ZM125.865 98.65C131.134 98.65 135.372 100.271 138.284 103.026C141.191 105.777 142.865 109.739 142.865 114.6H144.865C144.865 109.261 143.014 104.748 139.658 101.574C136.308 98.4039 131.546 96.65 125.865 96.65V98.65ZM143.865 113.6H106.665V115.6H143.865V113.6ZM107.652 114.76C108.526 109.37 110.545 105.369 113.552 102.712C116.554 100.059 120.649 98.65 125.865 98.65V96.65C120.281 96.65 115.676 98.1658 112.228 101.213C108.784 104.256 106.604 108.73 105.678 114.44L107.652 114.76ZM188.288 159L187.337 159.308L187.561 160H188.288V159ZM206.138 159V160H206.868L207.09 159.305L206.138 159ZM216.338 127.2L217.291 127.505L217.294 127.495L216.338 127.2ZM222.188 106.35L223.176 106.192L221.211 106.138L222.188 106.35ZM227.438 126.9L226.482 127.194L226.485 127.203L227.438 126.9ZM237.638 159L236.685 159.303L236.907 160H237.638V159ZM254.738 159V160H255.45L255.683 159.327L254.738 159ZM280.388 84.9L281.333 85.2271L281.793 83.9H280.388V84.9ZM261.038 84.9V83.9H260.302L260.083 84.6027L261.038 84.9ZM251.138 116.7L250.183 116.403L250.181 116.412L250.178 116.421L251.138 116.7ZM246.188 135.75L245.204 135.929L247.166 135.961L246.188 135.75ZM241.388 116.7L242.346 116.413L242.343 116.403L241.388 116.7ZM231.488 84.9L232.443 84.6027L232.224 83.9H231.488V84.9ZM212.888 84.9V83.9H212.159L211.936 84.5946L212.888 84.9ZM202.688 116.7L203.639 117.01L203.64 117.005L202.688 116.7ZM197.588 135.9L196.607 136.092L198.571 136.084L197.588 135.9ZM193.088 116.7L194.051 116.429L194.048 116.418L194.044 116.407L193.088 116.7ZM183.338 84.9L184.294 84.6069L184.078 83.9H183.338V84.9ZM164.288 84.9V83.9H162.913L163.337 85.2081L164.288 84.9ZM188.288 160H206.138V158H188.288V160ZM207.09 159.305L217.291 127.505L215.386 126.895L205.186 158.695L207.09 159.305ZM217.294 127.495C221.047 115.336 222.406 110.054 223.165 106.562L221.211 106.138C220.47 109.546 219.13 114.764 215.383 126.905L217.294 127.495ZM221.201 106.508C221.811 110.323 223.476 117.423 226.483 127.194L228.394 126.606C225.401 116.877 223.765 109.877 223.176 106.192L221.201 106.508ZM226.485 127.203L236.685 159.303L238.591 158.697L228.391 126.597L226.485 127.203ZM237.638 160H254.738V158H237.638V160ZM255.683 159.327L281.333 85.2271L279.443 84.5729L253.793 158.673L255.683 159.327ZM280.388 83.9H261.038V85.9H280.388V83.9ZM260.083 84.6027L250.183 116.403L252.093 116.997L261.993 85.1972L260.083 84.6027ZM250.178 116.421C248.826 121.079 246.418 129.955 245.211 135.539L247.166 135.961C248.358 130.445 250.751 121.621 252.099 116.979L250.178 116.421ZM247.172 135.571C246.262 130.565 243.249 119.422 242.346 116.413L240.43 116.987C241.328 119.978 244.315 131.035 245.204 135.929L247.172 135.571ZM242.343 116.403L232.443 84.6027L230.533 85.1972L240.433 116.997L242.343 116.403ZM231.488 83.9H212.888V85.9H231.488V83.9ZM211.936 84.5946L201.736 116.395L203.64 117.005L213.841 85.2054L211.936 84.5946ZM201.738 116.39C199.33 123.762 197.966 128.457 196.605 135.716L198.571 136.084C199.91 128.943 201.246 124.338 203.639 117.01L201.738 116.39ZM198.57 135.708C197.216 128.787 195.71 122.31 194.051 116.429L192.126 116.971C193.767 122.79 195.261 129.213 196.607 136.092L198.57 135.708ZM194.044 116.407L184.294 84.6069L182.382 85.1931L192.132 116.993L194.044 116.407ZM183.338 83.9H164.288V85.9H183.338V83.9ZM163.337 85.2081L187.337 159.308L189.24 158.692L165.24 84.5919L163.337 85.2081ZM333.107 148.05L334.1 147.928L333.634 144.146L332.183 147.669L333.107 148.05ZM334.457 159L333.465 159.122L333.573 160H334.457V159ZM350.507 159V160H351.507V159H350.507ZM284.957 109.2H283.957V110.2H284.957V109.2ZM300.557 109.2V110.2H301.557V109.2H300.557ZM332.657 112.65L332.732 113.647L333.657 113.578V112.65H332.657ZM310.457 114.3L310.383 113.303L310.381 113.303L310.457 114.3ZM317.357 126.3L317.28 125.303L317.273 125.304L317.266 125.304L317.357 126.3ZM332.807 125.1H333.807V124.019L332.73 124.103L332.807 125.1ZM308.357 161.95C320.123 161.95 330.667 156.604 334.032 148.431L332.183 147.669C329.248 154.796 319.692 159.95 308.357 159.95V161.95ZM332.115 148.172L333.465 159.122L335.45 158.878L334.1 147.928L332.115 148.172ZM334.457 160H350.507V158H334.457V160ZM351.507 159V114H349.507V159H351.507ZM351.507 114C351.507 103.523 348.367 95.3947 342.551 89.8923C336.744 84.3984 328.405 81.65 318.257 81.65V83.65C328.059 83.65 335.846 86.3016 341.176 91.3452C346.498 96.3803 349.507 103.927 349.507 114H351.507ZM318.257 81.65C308.043 81.65 299.479 84.3176 293.447 89.1242C287.393 93.9475 283.957 100.874 283.957 109.2H285.957C285.957 101.476 289.122 95.1275 294.693 90.6883C300.286 86.2324 308.372 83.65 318.257 83.65V81.65ZM284.957 110.2H300.557V108.2H284.957V110.2ZM301.557 109.2C301.557 105.589 302.929 102.825 305.501 100.93C308.115 99.0034 312.076 97.9 317.357 97.9V95.9C311.839 95.9 307.399 97.0466 304.314 99.3199C301.186 101.625 299.557 105.011 299.557 109.2H301.557ZM317.357 97.9C321.884 97.9 325.436 98.8887 327.846 100.942C330.227 102.971 331.657 106.18 331.657 111H333.657C333.657 105.77 332.088 101.929 329.144 99.4201C326.229 96.9363 322.131 95.9 317.357 95.9V97.9ZM331.657 111V112.65H333.657V111H331.657ZM332.583 111.653L310.383 113.303L310.532 115.297L332.732 113.647L332.583 111.653ZM310.381 113.303C301.473 113.988 294.381 116.509 289.499 120.704C284.591 124.923 282.007 130.759 282.007 137.85H284.007C284.007 131.291 286.374 126.027 290.803 122.221C295.259 118.391 301.892 115.962 310.534 115.297L310.381 113.303ZM282.007 137.85C282.007 145.064 284.496 151.12 289.098 155.366C293.691 159.605 300.291 161.95 308.357 161.95V159.95C300.673 159.95 294.598 157.72 290.454 153.896C286.318 150.08 284.007 144.586 284.007 137.85H282.007ZM314.357 146.15C310.34 146.15 307.409 145.342 305.501 143.865C303.638 142.424 302.607 140.233 302.607 137.1H300.607C300.607 140.717 301.827 143.551 304.277 145.447C306.681 147.308 310.124 148.15 314.357 148.15V146.15ZM302.607 137.1C302.607 134.388 303.567 132.266 305.794 130.654C308.091 128.991 311.815 127.815 317.449 127.296L317.266 125.304C311.5 125.835 307.349 127.059 304.621 129.034C301.823 131.059 300.607 133.812 300.607 137.1H302.607ZM317.435 127.297L332.885 126.097L332.73 124.103L317.28 125.303L317.435 127.297ZM331.807 125.1V129H333.807V125.1H331.807ZM331.807 129C331.807 134.485 330.081 138.744 327.105 141.632C324.125 144.525 319.783 146.15 314.357 146.15V148.15C320.182 148.15 325.065 146.4 328.498 143.068C331.934 139.731 333.807 134.915 333.807 129H331.807ZM413.485 84.6H414.485V83.8192L413.728 83.6299L413.485 84.6ZM385.285 95.85L384.29 95.9468L386.204 96.2439L385.285 95.85ZM384.235 85.05L385.23 84.9532L385.143 84.05H384.235V85.05ZM366.985 85.05V84.05H365.985V85.05H366.985ZM366.985 159H365.985V160H366.985V159ZM385.285 159V160H386.285V159H385.285ZM413.485 101.55V102.55H414.485V101.55H413.485ZM413.728 83.6299C410.653 82.8612 408.022 82.55 405.385 82.55V84.55C407.849 84.55 410.317 84.8388 413.243 85.5701L413.728 83.6299ZM405.385 82.55C395.113 82.55 387.684 87.7138 384.366 95.4561L386.204 96.2439C389.186 89.2861 395.858 84.55 405.385 84.55V82.55ZM386.28 95.7532L385.23 84.9532L383.24 85.1468L384.29 95.9468L386.28 95.7532ZM384.235 84.05H366.985V86.05H384.235V84.05ZM365.985 85.05V159H367.985V85.05H365.985ZM366.985 160H385.285V158H366.985V160ZM386.285 159V123H384.285V159H386.285ZM386.285 123C386.285 115.99 388.289 110.92 391.753 107.597C395.224 104.266 400.305 102.55 406.735 102.55V100.55C399.965 100.55 394.322 102.359 390.368 106.153C386.407 109.955 384.285 115.61 384.285 123H386.285ZM406.735 102.55H413.485V100.55H406.735V102.55ZM414.485 101.55V84.6H412.485V101.55H414.485ZM477.682 147.45L478.676 147.347L478.335 144.062L476.797 146.984L477.682 147.45ZM478.882 159L477.887 159.103L477.98 160H478.882V159ZM495.682 159V160H496.682V159H495.682ZM495.682 47.4H496.682V46.4H495.682V47.4ZM477.532 47.4V46.4H476.532V47.4H477.532ZM477.532 94.35L476.687 94.8846L478.532 97.8011V94.35H477.532ZM452.332 161.95C463.859 161.95 473.854 156.87 478.567 147.916L476.797 146.984C472.509 155.13 463.304 159.95 452.332 159.95V161.95ZM476.687 147.553L477.887 159.103L479.876 158.897L478.676 147.347L476.687 147.553ZM478.882 160H495.682V158H478.882V160ZM496.682 159V47.4H494.682V159H496.682ZM495.682 46.4H477.532V48.4H495.682V46.4ZM476.532 47.4V94.35H478.532V47.4H476.532ZM478.377 93.8154C473.501 86.1093 463.988 81.65 453.382 81.65V83.65C463.475 83.65 472.262 87.8907 476.687 94.8846L478.377 93.8154ZM453.382 81.65C441.943 81.65 432.699 85.8812 426.325 93.127C419.963 100.359 416.532 110.51 416.532 122.25H418.532C418.532 110.89 421.85 101.241 427.826 94.448C433.79 87.6688 442.47 83.65 453.382 83.65V81.65ZM416.532 122.25C416.532 133.914 419.925 143.842 426.139 150.869C432.364 157.908 441.346 161.95 452.332 161.95V159.95C441.867 159.95 433.45 156.117 427.637 149.544C421.813 142.958 418.532 133.536 418.532 122.25H416.532ZM456.382 143.15C450.265 143.15 445.409 140.928 442.072 137.185C438.723 133.429 436.832 128.057 436.832 121.65H434.832C434.832 128.443 436.84 134.321 440.579 138.515C444.329 142.722 449.748 145.15 456.382 145.15V143.15ZM436.832 121.65C436.832 115.242 438.724 109.831 442.075 106.037C445.414 102.256 450.271 100 456.382 100V98C449.743 98 444.324 100.469 440.576 104.713C436.84 108.944 434.832 114.858 434.832 121.65H436.832ZM456.382 100C462.5 100 467.474 102.224 470.925 105.994C474.384 109.772 476.382 115.179 476.382 121.65H478.382C478.382 114.771 476.254 108.853 472.4 104.643C468.539 100.426 463.013 98 456.382 98V100ZM476.382 121.65C476.382 128.12 474.385 133.488 470.928 137.228C467.479 140.96 462.505 143.15 456.382 143.15V145.15C463.008 145.15 468.534 142.765 472.397 138.585C476.254 134.412 478.382 128.53 478.382 121.65H476.382ZM507.553 136.5V135.5H506.553V136.5H507.553ZM550.003 116.7L549.773 117.673L549.78 117.675L550.003 116.7ZM536.653 113.55L536.421 114.523L536.423 114.523L536.653 113.55ZM549.853 106.65L548.853 106.674L548.876 107.65H549.853V106.65ZM567.253 106.65V107.65H568.263L568.253 106.64L567.253 106.65ZM529.603 127.05L529.832 126.077L529.822 126.074L529.603 127.05ZM542.953 130.2L542.723 131.173L542.731 131.175L542.953 130.2ZM524.953 136.5L525.952 136.477L525.93 135.5H524.953V136.5ZM506.553 136.5C506.553 144.066 509.605 150.465 515.075 154.954C520.526 159.429 528.307 161.95 537.703 161.95V159.95C528.649 159.95 521.354 157.521 516.343 153.408C511.35 149.31 508.553 143.484 508.553 136.5H506.553ZM537.703 161.95C547.011 161.95 555.006 159.586 560.699 155.218C566.417 150.832 569.753 144.465 569.753 136.65H567.753C567.753 143.835 564.713 149.618 559.482 153.632C554.225 157.664 546.695 159.95 537.703 159.95V161.95ZM569.753 136.65C569.753 130.751 568.115 126.204 564.762 122.77C561.439 119.367 556.537 117.17 550.226 115.725L549.78 117.675C555.919 119.08 560.392 121.158 563.331 124.167C566.24 127.146 567.753 131.149 567.753 136.65H569.753ZM550.232 115.727L536.882 112.577L536.423 114.523L549.773 117.673L550.232 115.727ZM536.884 112.577C533.808 111.845 531.583 110.844 530.142 109.604C528.74 108.398 528.053 106.945 528.053 105.15H526.053C526.053 107.555 527.015 109.552 528.838 111.121C530.622 112.656 533.197 113.755 536.421 114.523L536.884 112.577ZM528.053 105.15C528.053 102.654 528.983 100.744 530.667 99.4327C532.384 98.0955 534.99 97.3 538.453 97.3V95.3C534.716 95.3 531.621 96.1545 529.438 97.8548C527.222 99.5806 526.053 102.096 526.053 105.15H528.053ZM538.453 97.3C541.788 97.3 544.337 98.2554 546.062 99.8473C547.781 101.434 548.783 103.747 548.853 106.674L550.852 106.626C550.772 103.253 549.6 100.391 547.419 98.3777C545.243 96.3696 542.168 95.3 538.453 95.3V97.3ZM549.853 107.65H567.253V105.65H549.853V107.65ZM568.253 106.64C568.175 99.1634 565.206 92.8855 560.065 88.4899C554.936 84.1051 547.715 81.65 539.203 81.65V83.65C547.34 83.65 554.069 85.9949 558.765 90.0101C563.449 94.0144 566.181 99.7366 566.253 106.66L568.253 106.64ZM539.203 81.65C530.495 81.65 522.913 83.864 517.482 88.025C512.025 92.206 508.803 98.3106 508.803 105.9H510.803C510.803 98.9394 513.73 93.419 518.698 89.6125C523.693 85.786 530.81 83.65 539.203 83.65V81.65ZM508.803 105.9C508.803 112.019 510.475 116.826 513.974 120.485C517.447 124.117 522.614 126.504 529.383 128.026L529.822 126.074C523.242 124.596 518.509 122.333 515.419 119.103C512.356 115.899 510.803 111.631 510.803 105.9H508.803ZM529.373 128.023L542.723 131.173L543.182 129.227L529.832 126.077L529.373 128.023ZM542.731 131.175C545.948 131.906 547.871 132.898 548.991 134.033C550.073 135.132 550.503 136.465 550.503 138.15H552.503C552.503 136.085 551.957 134.193 550.415 132.629C548.91 131.102 546.557 129.994 543.174 129.225L542.731 131.175ZM550.503 138.15C550.503 140.52 549.503 142.425 547.542 143.777C545.537 145.158 542.463 146 538.303 146V148C542.692 148 546.218 147.117 548.676 145.423C551.178 143.7 552.503 141.18 552.503 138.15H550.503ZM538.303 146C534.252 146 531.198 145.023 529.159 143.389C527.145 141.774 526.021 139.439 525.952 136.477L523.953 136.523C524.034 140.011 525.385 142.926 527.909 144.949C530.408 146.952 533.954 148 538.303 148V146ZM524.953 135.5H507.553V137.5H524.953V135.5Z" fill="url(#paint0_linear_156_164)" fill-opacity="0.15"/>
<defs>
<linearGradient id="paint0_linear_156_164" x1="331.5" y1="-7.52957e-10" x2="332" y2="377" gradientUnits="userSpaceOnUse">
<stop offset="0.312835" stop-color="#33E9E9"/>
<stop offset="0.761924" stop-color="#33E9E9" stop-opacity="0"/>
</linearGradient>
</defs>
</svg>
