<svg width="1510" height="423" viewBox="0 0 1510 423" fill="none" xmlns="http://www.w3.org/2000/svg">
<path d="M652.75 330.6C658.45 330.6 662.2 327.85 663.5 322.75H660.2C659.3 325.95 656.75 327.65 652.8 327.65C647.6 327.65 644.5 324.25 644.25 318.35H663.5V316.65C663.5 309.8 659.05 305.15 652.5 305.15C645.6 305.15 640.9 310.35 640.9 317.9C640.9 325.5 645.65 330.6 652.75 330.6ZM652.5 308.1C657.05 308.1 660.05 311.2 660.05 315.85H644.35C644.95 311.1 647.95 308.1 652.5 308.1ZM673.822 330V308.7H678.672V305.8H673.822V298.15H670.422V305.8H665.572V308.7H670.422V330H673.822ZM689.224 330.6C693.324 330.6 696.624 328.8 698.124 325.75L698.574 330H701.474V314.35C701.474 307.95 697.374 305.15 691.774 305.15C685.824 305.15 681.824 308.3 681.824 313.2H684.974C684.974 309.95 687.474 308.05 691.674 308.05C695.224 308.05 698.074 309.55 698.074 314.3V315.1L690.074 315.75C684.424 316.2 681.024 319 681.024 323.45C681.024 327.7 684.074 330.6 689.224 330.6ZM690.024 327.8C686.724 327.8 684.524 326.3 684.524 323.35C684.524 320.65 686.374 318.65 690.924 318.25L698.074 317.7V319C698.074 324.25 695.124 327.8 690.024 327.8Z" fill="#33E9E9"/>
<mask id="path-2-inside-1_153_322" fill="white">
<path d="M630.211 305.475C631.46 304.51 632.465 303.268 633.148 301.85C633.831 300.431 634.173 298.873 634.146 297.301C634.146 291.247 629.185 287.019 622.083 287.019C620.474 286.926 618.864 287.173 617.358 287.743C615.852 288.313 614.484 289.193 613.345 290.326C612.206 291.459 611.32 292.819 610.747 294.316C610.174 295.814 609.926 297.415 610.019 299.014V335H613.466V324.925C614.803 326.302 616.411 327.39 618.191 328.121C619.97 328.853 621.881 329.211 623.806 329.175C625.547 329.239 627.284 328.946 628.907 328.316C630.53 327.685 632.006 326.729 633.242 325.508C634.479 324.287 635.45 322.826 636.095 321.217C636.741 319.607 637.047 317.883 636.994 316.15C637.051 313.904 636.437 311.691 635.23 309.791C634.022 307.891 632.276 306.389 630.211 305.475V305.475ZM623.806 325.747C622.486 325.821 621.165 325.629 619.922 325.182C618.679 324.735 617.54 324.042 616.574 323.145C615.607 322.249 614.834 321.166 614.3 319.964C613.766 318.762 613.482 317.465 613.466 316.15V299.014C613.386 297.869 613.553 296.719 613.958 295.643C614.363 294.568 614.995 293.591 615.811 292.779C616.628 291.966 617.611 291.338 618.692 290.936C619.774 290.533 620.93 290.366 622.083 290.446C627.317 290.446 630.699 293.137 630.699 297.301C630.73 298.209 630.572 299.114 630.237 299.959C629.901 300.804 629.394 301.572 628.748 302.215C628.102 302.857 627.33 303.361 626.479 303.695C625.629 304.029 624.719 304.185 623.806 304.155V307.582C629.724 307.582 633.548 310.946 633.548 316.15C633.599 317.432 633.382 318.71 632.909 319.904C632.437 321.097 631.72 322.18 630.803 323.083C629.887 323.986 628.791 324.689 627.587 325.147C626.382 325.606 625.094 325.81 623.806 325.747V325.747Z"/>
</mask>
<path d="M630.211 305.475C631.46 304.51 632.465 303.268 633.148 301.85C633.831 300.431 634.173 298.873 634.146 297.301C634.146 291.247 629.185 287.019 622.083 287.019C620.474 286.926 618.864 287.173 617.358 287.743C615.852 288.313 614.484 289.193 613.345 290.326C612.206 291.459 611.32 292.819 610.747 294.316C610.174 295.814 609.926 297.415 610.019 299.014V335H613.466V324.925C614.803 326.302 616.411 327.39 618.191 328.121C619.97 328.853 621.881 329.211 623.806 329.175C625.547 329.239 627.284 328.946 628.907 328.316C630.53 327.685 632.006 326.729 633.242 325.508C634.479 324.287 635.45 322.826 636.095 321.217C636.741 319.607 637.047 317.883 636.994 316.15C637.051 313.904 636.437 311.691 635.23 309.791C634.022 307.891 632.276 306.389 630.211 305.475V305.475ZM623.806 325.747C622.486 325.821 621.165 325.629 619.922 325.182C618.679 324.735 617.54 324.042 616.574 323.145C615.607 322.249 614.834 321.166 614.3 319.964C613.766 318.762 613.482 317.465 613.466 316.15V299.014C613.386 297.869 613.553 296.719 613.958 295.643C614.363 294.568 614.995 293.591 615.811 292.779C616.628 291.966 617.611 291.338 618.692 290.936C619.774 290.533 620.93 290.366 622.083 290.446C627.317 290.446 630.699 293.137 630.699 297.301C630.73 298.209 630.572 299.114 630.237 299.959C629.901 300.804 629.394 301.572 628.748 302.215C628.102 302.857 627.33 303.361 626.479 303.695C625.629 304.029 624.719 304.185 623.806 304.155V307.582C629.724 307.582 633.548 310.946 633.548 316.15C633.599 317.432 633.382 318.71 632.909 319.904C632.437 321.097 631.72 322.18 630.803 323.083C629.887 323.986 628.791 324.689 627.587 325.147C626.382 325.606 625.094 325.81 623.806 325.747V325.747Z" fill="#33E9E9"/>
<path d="M634.146 297.301H614.146V297.471L614.149 297.64L634.146 297.301ZM622.083 287.019L620.93 306.986L621.506 307.019H622.083V287.019ZM610.019 299.014H630.019V298.431L629.985 297.848L610.019 299.014ZM610.019 335H590.019V355H610.019V335ZM613.466 335V355H633.466V335H613.466ZM613.466 324.925L627.814 310.992L593.466 275.621V324.925H613.466ZM623.806 329.175L624.541 309.188L623.985 309.168L623.428 309.178L623.806 329.175ZM636.994 316.15L617.001 315.646L616.987 316.201L617.003 316.756L636.994 316.15ZM613.466 316.15H593.466V316.272L593.467 316.395L613.466 316.15ZM613.466 299.014H633.466V298.314L633.417 297.616L613.466 299.014ZM622.083 290.446L620.7 310.398L621.39 310.446H622.083V290.446ZM630.699 297.301H610.699V297.636L610.71 297.97L630.699 297.301ZM623.806 304.155L624.468 284.166L603.806 283.482V304.155H623.806ZM623.806 307.582H603.806V327.582H623.806V307.582ZM633.548 316.15H613.548V316.553L613.564 316.956L633.548 316.15ZM642.448 321.295C646.147 318.434 649.136 314.748 651.169 310.524L615.127 293.175C615.795 291.788 616.772 290.586 617.974 289.656L642.448 321.295ZM651.169 310.524C653.203 306.298 654.223 301.655 654.143 296.961L614.149 297.64C614.122 296.092 614.459 294.563 615.127 293.175L651.169 310.524ZM654.146 297.301C654.146 288.415 650.337 280.281 643.751 274.668C637.395 269.251 629.523 267.019 622.083 267.019V307.019C621.745 307.019 619.904 306.901 617.804 305.111C615.475 303.126 614.146 300.133 614.146 297.301H654.146ZM623.235 267.052C618.827 266.798 614.411 267.473 610.278 269.038L624.437 306.448C623.316 306.872 622.121 307.055 620.93 306.986L623.235 267.052ZM610.278 269.038C606.145 270.602 602.383 273.022 599.243 276.144L627.447 304.508C626.586 305.365 625.559 306.023 624.437 306.448L610.278 269.038ZM599.243 276.144C596.103 279.267 593.655 283.022 592.069 287.166L629.425 301.466C628.985 302.616 628.309 303.651 627.447 304.508L599.243 276.144ZM592.069 287.166C590.482 291.311 589.794 295.747 590.053 300.18L629.985 297.848C630.057 299.083 629.866 300.316 629.425 301.466L592.069 287.166ZM590.019 299.014V335H630.019V299.014H590.019ZM610.019 355H613.466V315H610.019V355ZM633.466 335V324.925H593.466V335H633.466ZM599.118 338.858C602.371 342.208 606.276 344.848 610.588 346.62L625.793 309.623C626.547 309.932 627.235 310.396 627.814 310.992L599.118 338.858ZM610.588 346.62C614.899 348.392 619.527 349.259 624.184 349.171L623.428 309.178C624.236 309.163 625.041 309.313 625.793 309.623L610.588 346.62ZM623.071 349.161C627.534 349.325 631.985 348.576 636.15 346.958L621.664 309.673C622.582 309.316 623.561 309.152 624.541 309.188L623.071 349.161ZM636.15 346.958C640.316 345.34 644.11 342.884 647.296 339.739L619.189 311.278C619.901 310.575 620.745 310.031 621.664 309.673L636.15 346.958ZM647.296 339.739C650.481 336.593 652.99 332.823 654.659 328.659L617.532 313.774C617.91 312.83 618.476 311.982 619.189 311.278L647.296 339.739ZM654.659 328.659C656.328 324.496 657.121 320.031 656.985 315.545L617.003 316.756C616.972 315.734 617.153 314.718 617.532 313.774L654.659 328.659ZM656.988 316.655C657.145 310.432 655.443 304.31 652.11 299.065L618.349 320.517C617.431 319.071 616.957 317.376 617.001 315.646L656.988 316.655ZM652.11 299.065C648.778 293.82 643.969 289.693 638.305 287.186L622.118 323.765C620.583 323.086 619.267 321.961 618.349 320.517L652.11 299.065ZM622.677 305.778C624.039 305.701 625.404 305.899 626.691 306.362L613.153 344.002C616.927 345.359 620.934 345.941 624.935 345.715L622.677 305.778ZM626.691 306.362C627.978 306.825 629.166 307.546 630.179 308.486L602.969 337.805C605.914 340.539 609.38 342.645 613.153 344.002L626.691 306.362ZM630.179 308.486C631.192 309.426 632.01 310.567 632.577 311.844L596.023 328.085C597.658 331.766 600.023 335.071 602.969 337.805L630.179 308.486ZM632.577 311.844C633.144 313.12 633.447 314.503 633.464 315.906L593.467 316.395C593.517 320.426 594.387 324.404 596.023 328.085L632.577 311.844ZM633.466 316.15V299.014H593.466V316.15H633.466ZM633.417 297.616C633.538 299.341 633.285 301.07 632.678 302.685L595.239 288.602C593.822 292.368 593.233 296.396 593.515 300.413L633.417 297.616ZM632.678 302.685C632.07 304.299 631.125 305.756 629.913 306.961L601.709 278.596C598.864 281.426 596.655 284.837 595.239 288.602L632.678 302.685ZM629.913 306.961C628.702 308.166 627.252 309.091 625.664 309.681L611.721 272.19C607.97 273.585 604.555 275.767 601.709 278.596L629.913 306.961ZM625.664 309.681C624.077 310.272 622.385 310.515 620.7 310.398L623.465 270.494C619.476 270.218 615.472 270.795 611.721 272.19L625.664 309.681ZM622.083 310.446C621.478 310.446 618.841 310.301 615.903 307.964C612.516 305.27 610.699 301.163 610.699 297.301H650.699C650.699 289.274 647.191 281.74 640.804 276.66C634.866 271.937 627.921 270.446 622.083 270.446V310.446ZM610.71 297.97C610.649 296.125 610.969 294.289 611.648 292.578L648.825 307.34C650.175 303.938 650.811 300.293 650.688 296.631L610.71 297.97ZM611.648 292.578C612.328 290.867 613.35 289.321 614.646 288.033L642.85 316.397C645.438 313.823 647.474 310.742 648.825 307.34L611.648 292.578ZM614.646 288.033C615.941 286.745 617.482 285.741 619.17 285.078L633.788 322.312C637.177 320.981 640.262 318.97 642.85 316.397L614.646 288.033ZM619.17 285.078C620.858 284.416 622.661 284.106 624.468 284.166L623.144 324.144C626.778 324.265 630.401 323.642 633.788 322.312L619.17 285.078ZM603.806 304.155V307.582H643.806V304.155H603.806ZM623.806 327.582C623.076 327.582 620.436 327.35 617.687 324.932C614.676 322.284 613.548 318.758 613.548 316.15H653.548C653.548 308.339 650.507 300.528 644.105 294.897C637.964 289.496 630.454 287.582 623.806 287.582V327.582ZM613.564 316.956C613.503 315.446 613.759 313.942 614.314 312.542L651.505 327.266C653.004 323.478 653.696 319.418 653.531 315.345L613.564 316.956ZM614.314 312.542C614.868 311.142 615.706 309.881 616.768 308.835L644.838 337.331C647.733 334.479 650.006 331.053 651.505 327.266L614.314 312.542ZM616.768 308.835C617.83 307.789 619.092 306.981 620.471 306.456L634.702 343.839C638.491 342.396 641.944 340.182 644.838 337.331L616.768 308.835ZM620.471 306.456C621.85 305.931 623.32 305.698 624.789 305.771L622.823 345.722C626.869 345.921 630.914 345.281 634.702 343.839L620.471 306.456Z" fill="#33E9E9" mask="url(#path-2-inside-1_153_322)"/>
<path d="M56.8 224.6C56.8 247 69.8 261.2 94.6 266.6L117.8 271.8C129.8 274.4 134.8 280.2 134.8 290C134.8 302.2 124 309.6 107 309.6C90.6 309.6 80.6 302.2 80.4 289.8H54.8C55.4 316 75.8 332.6 107 332.6C139.2 332.6 160.4 315 160.4 287.8C160.4 266 148.2 253.2 123.2 247.8L100.2 242.8C88 240 82.4 234.2 82.4 223.8C82.4 211.6 92.6 204 108.4 204C122.8 204 131.8 211.4 132.4 224H158C157.2 197.6 138.4 181.2 108.8 181.2C78 181.2 56.8 199 56.8 224.6ZM211.559 330V251.6H230.759V231.2H211.559V200.4H187.159V231.2H168.159V251.6H187.159V330H211.559ZM237.152 280.4C237.152 311.2 259.352 332.4 289.952 332.4C320.552 332.4 342.752 311.2 342.752 280.4C342.752 249.6 320.552 228.4 289.952 228.4C259.352 228.4 237.152 249.6 237.152 280.4ZM261.552 280.4C261.552 262.4 273.152 250.2 289.952 250.2C306.752 250.2 318.352 262.4 318.352 280.4C318.352 298.4 306.752 310.6 289.952 310.6C273.152 310.6 261.552 298.4 261.552 280.4ZM354.292 280.4C354.292 311.8 373.892 332.6 403.892 332.6C429.692 332.6 448.892 316.8 451.892 293.8H427.292C424.692 304.6 416.092 310.6 403.892 310.6C388.292 310.6 378.692 299 378.692 280.4C378.692 261.8 389.092 250 404.692 250C416.292 250 424.492 255.8 427.292 267H451.692C449.092 243.2 430.692 228.2 403.692 228.2C374.492 228.2 354.292 249.8 354.292 280.4ZM492.653 330V303.4L507.053 288.4L532.853 330H560.853L524.053 270.4L561.653 231.2H531.053L492.653 272.6V181.2H468.453V330H492.653Z" fill="#33E9E9"/>
<g opacity="0.3">
<path d="M19.5 144.5C19.5 200.5 52 236 114 249.5L172 262.5C202 269 214.5 283.5 214.5 308C214.5 338.5 187.5 357 145 357C104 357 79 338.5 78.5 307.5H14.5C16 373 67 414.5 145 414.5C225.5 414.5 278.5 370.5 278.5 302.5C278.5 248 248 216 185.5 202.5L128 190C97.5 183 83.5 168.5 83.5 142.5C83.5 112 109 93 148.5 93C184.5 93 207 111.5 208.5 143H272.5C270.5 77 223.5 36 149.5 36C72.5 36 19.5 80.5 19.5 144.5ZM406.398 408V212H454.398V161H406.398V84H345.398V161H297.898V212H345.398V408H406.398ZM470.379 284C470.379 361 525.879 414 602.379 414C678.879 414 734.379 361 734.379 284C734.379 207 678.879 154 602.379 154C525.879 154 470.379 207 470.379 284ZM531.379 284C531.379 239 560.379 208.5 602.379 208.5C644.379 208.5 673.379 239 673.379 284C673.379 329 644.379 359.5 602.379 359.5C560.379 359.5 531.379 329 531.379 284ZM763.23 284C763.23 362.5 812.23 414.5 887.23 414.5C951.73 414.5 999.73 375 1007.23 317.5H945.73C939.23 344.5 917.73 359.5 887.23 359.5C848.23 359.5 824.23 330.5 824.23 284C824.23 237.5 850.23 208 889.23 208C918.23 208 938.73 222.5 945.73 250.5H1006.73C1000.23 191 954.23 153.5 886.73 153.5C813.73 153.5 763.23 207.5 763.23 284ZM1109.13 408V341.5L1145.13 304L1209.63 408H1279.63L1187.63 259L1281.63 161H1205.13L1109.13 264.5V36H1048.63V408H1109.13Z" fill="url(#paint0_linear_153_322)"/>
<path d="M114 249.5L114.219 248.524L114.213 248.523L114 249.5ZM172 262.5L171.781 263.476L171.788 263.477L172 262.5ZM78.5 307.5L79.4999 307.484L79.484 306.5H78.5V307.5ZM14.5 307.5V306.5H13.4768L13.5003 307.523L14.5 307.5ZM185.5 202.5L185.288 203.477L185.289 203.477L185.5 202.5ZM128 190L127.776 190.975L127.788 190.977L128 190ZM208.5 143L207.501 143.048L207.546 144H208.5V143ZM272.5 143V144H273.531L273.5 142.97L272.5 143ZM18.5 144.5C18.5 172.704 26.6901 195.832 42.7582 213.608C58.8138 231.37 82.6517 243.698 113.787 250.477L114.213 248.523C83.3483 241.802 59.9362 229.63 44.2418 212.267C28.5599 194.918 20.5 172.295 20.5 144.5H18.5ZM113.781 250.476L171.781 263.476L172.219 261.524L114.219 248.524L113.781 250.476ZM171.788 263.477C186.681 266.704 197.081 271.887 203.763 279.176C210.425 286.444 213.5 295.927 213.5 308H215.5C215.5 295.573 212.325 285.556 205.237 277.824C198.169 270.113 187.319 264.796 172.212 261.523L171.788 263.477ZM213.5 308C213.5 322.912 206.919 334.861 195.114 343.118C183.273 351.401 166.122 356 145 356V358C166.378 358 183.977 353.349 196.261 344.757C208.581 336.139 215.5 323.588 215.5 308H213.5ZM145 356C124.635 356 108.369 351.404 97.159 343.072C85.9817 334.766 79.7451 322.687 79.4999 307.484L77.5001 307.516C77.7549 323.313 84.2683 335.984 95.966 344.678C107.631 353.346 124.365 358 145 358V356ZM78.5 306.5H14.5V308.5H78.5V306.5ZM13.5003 307.523C14.2566 340.548 27.5031 367.579 50.4293 386.336C73.3376 405.08 105.83 415.5 145 415.5V413.5C106.17 413.5 74.1624 403.17 51.6957 384.789C29.2469 366.421 16.2434 339.952 15.4997 307.477L13.5003 307.523ZM145 415.5C185.425 415.5 219.046 404.452 242.579 384.767C266.13 365.068 279.5 336.781 279.5 302.5H277.5C277.5 336.219 264.37 363.932 241.296 383.233C218.204 402.548 185.075 413.5 145 413.5V415.5ZM279.5 302.5C279.5 275.052 271.813 253.164 256.168 236.442C240.542 219.74 217.075 208.297 185.711 201.523L185.289 203.477C216.425 210.203 239.458 221.51 254.707 237.808C269.937 254.086 277.5 275.448 277.5 302.5H279.5ZM185.712 201.523L128.212 189.023L127.788 190.977L185.288 203.477L185.712 201.523ZM128.224 189.025C113.071 185.548 102.162 180.237 95.0398 172.689C87.9419 165.166 84.5 155.309 84.5 142.5H82.5C82.5 155.691 86.0581 166.084 93.5852 174.061C101.088 182.013 112.429 187.452 127.776 190.975L128.224 189.025ZM84.5 142.5C84.5 127.561 90.7299 115.482 101.791 107.11C112.881 98.716 128.897 94 148.5 94V92C128.603 92 112.119 96.784 100.584 105.515C89.0201 114.268 82.5 126.939 82.5 142.5H84.5ZM148.5 94C166.337 94 180.713 98.5827 190.799 106.957C200.868 115.317 206.763 127.54 207.501 143.048L209.499 142.952C208.737 126.96 202.632 114.183 192.076 105.418C181.537 96.6673 166.663 92 148.5 92V94ZM208.5 144H272.5V142H208.5V144ZM273.5 142.97C272.492 109.726 260.142 82.7006 238.657 63.9958C217.183 45.3012 186.68 35 149.5 35V37C186.32 37 216.317 47.1988 237.343 65.5042C258.358 83.7994 270.508 110.274 271.5 143.03L273.5 142.97ZM149.5 35C110.813 35 78.0715 46.1798 54.9836 65.4828C31.8824 84.7969 18.5 112.202 18.5 144.5H20.5C20.5 112.798 33.6176 85.9531 56.2664 67.0172C78.9285 48.0702 111.187 37 149.5 37V35ZM406.398 408V409H407.398V408H406.398ZM406.398 212V211H405.398V212H406.398ZM454.398 212V213H455.398V212H454.398ZM454.398 161H455.398V160H454.398V161ZM406.398 161H405.398V162H406.398V161ZM406.398 84H407.398V83H406.398V84ZM345.398 84V83H344.398V84H345.398ZM345.398 161V162H346.398V161H345.398ZM297.898 161V160H296.898V161H297.898ZM297.898 212H296.898V213H297.898V212ZM345.398 212H346.398V211H345.398V212ZM345.398 408H344.398V409H345.398V408ZM407.398 408V212H405.398V408H407.398ZM406.398 213H454.398V211H406.398V213ZM455.398 212V161H453.398V212H455.398ZM454.398 160H406.398V162H454.398V160ZM407.398 161V84H405.398V161H407.398ZM406.398 83H345.398V85H406.398V83ZM344.398 84V161H346.398V84H344.398ZM345.398 160H297.898V162H345.398V160ZM296.898 161V212H298.898V161H296.898ZM297.898 213H345.398V211H297.898V213ZM344.398 212V408H346.398V212H344.398ZM345.398 409H406.398V407H345.398V409ZM469.379 284C469.379 322.749 483.348 355.514 506.993 378.591C530.635 401.665 563.894 415 602.379 415V413C564.364 413 531.623 399.835 508.39 377.159C485.159 354.486 471.379 322.251 471.379 284H469.379ZM602.379 415C640.864 415 674.123 401.665 697.765 378.591C721.409 355.514 735.379 322.749 735.379 284H733.379C733.379 322.251 719.598 354.486 696.368 377.159C673.135 399.835 640.394 413 602.379 413V415ZM735.379 284C735.379 245.251 721.409 212.486 697.765 189.409C674.123 166.335 640.864 153 602.379 153V155C640.394 155 673.135 168.165 696.368 190.841C719.598 213.514 733.379 245.749 733.379 284H735.379ZM602.379 153C563.894 153 530.635 166.335 506.993 189.409C483.348 212.486 469.379 245.251 469.379 284H471.379C471.379 245.749 485.159 213.514 508.39 190.841C531.623 168.165 564.364 155 602.379 155V153ZM532.379 284C532.379 261.716 539.556 243.099 551.856 230.061C564.152 217.028 581.631 209.5 602.379 209.5V207.5C581.127 207.5 563.106 215.222 550.402 228.689C537.702 242.151 530.379 261.284 530.379 284H532.379ZM602.379 209.5C623.127 209.5 640.606 217.028 652.902 230.061C665.202 243.099 672.379 261.716 672.379 284H674.379C674.379 261.284 667.056 242.151 654.356 228.689C641.652 215.222 623.631 207.5 602.379 207.5V209.5ZM672.379 284C672.379 306.284 665.202 324.901 652.902 337.939C640.606 350.972 623.127 358.5 602.379 358.5V360.5C623.631 360.5 641.652 352.778 654.356 339.311C667.056 325.849 674.379 306.716 674.379 284H672.379ZM602.379 358.5C581.631 358.5 564.152 350.972 551.856 337.939C539.556 324.901 532.379 306.284 532.379 284H530.379C530.379 306.716 537.702 325.849 550.402 339.311C563.106 352.778 581.127 360.5 602.379 360.5V358.5ZM1007.23 317.5L1008.22 317.629L1008.37 316.5H1007.23V317.5ZM945.73 317.5V316.5H944.943L944.758 317.266L945.73 317.5ZM945.73 250.5L944.76 250.743L944.95 251.5H945.73V250.5ZM1006.73 250.5V251.5H1007.85L1007.72 250.391L1006.73 250.5ZM762.23 284C762.23 323.459 774.549 356.345 796.38 379.375C818.216 402.411 849.49 415.5 887.23 415.5V413.5C849.971 413.5 819.245 400.589 797.831 378C776.412 355.405 764.23 323.041 764.23 284H762.23ZM887.23 415.5C952.163 415.5 1000.65 375.693 1008.22 317.629L1006.24 317.371C998.812 374.307 951.297 413.5 887.23 413.5V415.5ZM1007.23 316.5H945.73V318.5H1007.23V316.5ZM944.758 317.266C941.56 330.552 934.688 340.837 924.9 347.811C915.104 354.791 902.319 358.5 887.23 358.5V360.5C902.642 360.5 915.857 356.709 926.061 349.439C936.273 342.163 943.401 331.448 946.703 317.734L944.758 317.266ZM887.23 358.5C867.999 358.5 852.541 351.361 841.874 338.548C831.189 325.713 825.23 307.088 825.23 284H823.23C823.23 307.412 829.272 326.537 840.337 339.827C851.42 353.139 867.462 360.5 887.23 360.5V358.5ZM825.23 284C825.23 260.931 831.679 242.181 842.863 229.216C854.034 216.264 870 209 889.23 209V207C869.461 207 852.927 214.486 841.348 227.909C829.782 241.319 823.23 260.569 823.23 284H825.23ZM889.23 209C903.564 209 915.718 212.582 925.135 219.554C934.548 226.521 941.308 236.933 944.76 250.743L946.701 250.257C943.153 236.067 936.163 225.229 926.325 217.946C916.493 210.668 903.897 207 889.23 207V209ZM945.73 251.5H1006.73V249.5H945.73V251.5ZM1007.72 250.391C1004.45 220.398 991.204 195.901 970.235 178.911C949.274 161.927 920.664 152.5 886.73 152.5V154.5C920.297 154.5 948.437 163.823 968.976 180.464C989.507 197.099 1002.51 221.102 1005.74 250.609L1007.72 250.391ZM886.73 152.5C849.973 152.5 818.829 166.101 796.878 189.376C774.931 212.647 762.23 245.528 762.23 284H764.23C764.23 245.972 776.779 213.603 798.333 190.749C819.882 167.899 850.488 154.5 886.73 154.5V152.5ZM1109.13 408V409H1110.13V408H1109.13ZM1109.13 341.5L1108.41 340.807L1108.13 341.098V341.5H1109.13ZM1145.13 304L1145.98 303.473L1145.3 302.378L1144.41 303.307L1145.13 304ZM1209.63 408L1208.78 408.527L1209.08 409H1209.63V408ZM1279.63 408V409H1281.43L1280.48 407.475L1279.63 408ZM1187.63 259L1186.91 258.308L1186.38 258.867L1186.78 259.525L1187.63 259ZM1281.63 161L1282.35 161.692L1283.98 160H1281.63V161ZM1205.13 161V160H1204.7L1204.4 160.32L1205.13 161ZM1109.13 264.5H1108.13V267.049L1109.87 265.18L1109.13 264.5ZM1109.13 36H1110.13V35H1109.13V36ZM1048.63 36V35H1047.63V36H1048.63ZM1048.63 408H1047.63V409H1048.63V408ZM1110.13 408V341.5H1108.13V408H1110.13ZM1109.85 342.193L1145.85 304.693L1144.41 303.307L1108.41 340.807L1109.85 342.193ZM1144.28 304.527L1208.78 408.527L1210.48 407.473L1145.98 303.473L1144.28 304.527ZM1209.63 409H1279.63V407H1209.63V409ZM1280.48 407.475L1188.48 258.475L1186.78 259.525L1278.78 408.525L1280.48 407.475ZM1188.35 259.692L1282.35 161.692L1280.91 160.308L1186.91 258.308L1188.35 259.692ZM1281.63 160H1205.13V162H1281.63V160ZM1204.4 160.32L1108.4 263.82L1109.87 265.18L1205.87 161.68L1204.4 160.32ZM1110.13 264.5V36H1108.13V264.5H1110.13ZM1109.13 35H1048.63V37H1109.13V35ZM1047.63 36V408H1049.63V36H1047.63ZM1048.63 409H1109.13V407H1048.63V409Z" fill="url(#paint1_linear_153_322)"/>
</g>
<defs>
<linearGradient id="paint0_linear_153_322" x1="756" y1="0" x2="769.514" y2="410.9" gradientUnits="userSpaceOnUse">
<stop/>
<stop offset="0.91119" stop-color="#33E9E9" stop-opacity="0"/>
</linearGradient>
<linearGradient id="paint1_linear_153_322" x1="440" y1="-27.8901" x2="649.7" y2="714.643" gradientUnits="userSpaceOnUse">
<stop offset="0.283066" stop-color="#33E9E9"/>
<stop offset="0.719555" stop-color="#33E9E9" stop-opacity="0"/>
</linearGradient>
</defs>
</svg>
