<?xml version="1.0" encoding="UTF-8" standalone="no"?>
<svg
   width="1270.5032"
   height="380.5"
   viewBox="0 0 1270.5032 380.5"
   fill="none"
   version="1.1"
   id="svg31"
   sodipodi:docname="stocks-banner.svg"
   inkscape:version="1.2.1 (9c6d41e, 2022-07-14)"
   xmlns:inkscape="http://www.inkscape.org/namespaces/inkscape"
   xmlns:sodipodi="http://sodipodi.sourceforge.net/DTD/sodipodi-0.dtd"
   xmlns="http://www.w3.org/2000/svg"
   xmlns:svg="http://www.w3.org/2000/svg">
  <sodipodi:namedview
     id="namedview33"
     pagecolor="#ffffff"
     bordercolor="#000000"
     borderopacity="0.25"
     inkscape:showpageshadow="2"
     inkscape:pageopacity="0.0"
     inkscape:pagecheckerboard="0"
     inkscape:deskcolor="#d1d1d1"
     showgrid="false"
     inkscape:zoom="0.55791962"
     inkscape:cx="741.14619"
     inkscape:cy="175.65254"
     inkscape:window-width="1309"
     inkscape:window-height="456"
     inkscape:window-x="0"
     inkscape:window-y="25"
     inkscape:window-maximized="0"
     inkscape:current-layer="svg31" />
  <path
     d="m 639.2732,295.6 c 5.7,0 9.45,-2.75 10.75,-7.85 h -3.3 c -0.9,3.2 -3.45,4.9 -7.4,4.9 -5.2,0 -8.3,-3.4 -8.55,-9.3 h 19.25 v -1.7 c 0,-6.85 -4.45,-11.5 -11,-11.5 -6.9,0 -11.6,5.2 -11.6,12.75 0,7.6 4.75,12.7 11.85,12.7 z m -0.25,-22.5 c 4.55,0 7.55,3.1 7.55,7.75 h -15.7 c 0.6,-4.75 3.6,-7.75 8.15,-7.75 z m 21.322,21.9 v -21.3 h 4.85 v -2.9 h -4.85 v -7.65 h -3.4 v 7.65 h -4.85 v 2.9 h 4.85 V 295 Z m 15.402,0.6 c 4.1,0 7.4,-1.8 8.9,-4.85 l 0.45,4.25 h 2.9 v -15.65 c 0,-6.4 -4.1,-9.2 -9.7,-9.2 -5.95,0 -9.95,3.15 -9.95,8.05 h 3.15 c 0,-3.25 2.5,-5.15 6.7,-5.15 3.55,0 6.4,1.5 6.4,6.25 v 0.8 l -8,0.65 c -5.65,0.45 -9.05,3.25 -9.05,7.7 0,4.25 3.05,7.15 8.2,7.15 z m 0.8,-2.8 c -3.3,0 -5.5,-1.5 -5.5,-4.45 0,-2.7 1.85,-4.7 6.4,-5.1 l 7.15,-0.55 v 1.3 c 0,5.25 -2.95,8.8 -8.05,8.8 z"
     fill="#33e9e9"
     id="path2" />
  <mask
     id="path-2-inside-1_153_322"
     fill="#ffffff">
    <path
       d="m 630.211,305.475 c 1.249,-0.965 2.254,-2.207 2.937,-3.625 0.683,-1.419 1.025,-2.977 0.998,-4.549 0,-6.054 -4.961,-10.282 -12.063,-10.282 -1.609,-0.093 -3.219,0.154 -4.725,0.724 -1.506,0.57 -2.874,1.45 -4.013,2.583 -1.139,1.133 -2.025,2.493 -2.598,3.99 -0.573,1.498 -0.821,3.099 -0.728,4.698 V 335 h 3.447 v -10.075 c 1.337,1.377 2.945,2.465 4.725,3.196 1.779,0.732 3.69,1.09 5.615,1.054 1.741,0.064 3.478,-0.229 5.101,-0.859 1.623,-0.631 3.099,-1.587 4.335,-2.808 1.237,-1.221 2.208,-2.682 2.853,-4.291 0.646,-1.61 0.952,-3.334 0.899,-5.067 0.057,-2.246 -0.557,-4.459 -1.764,-6.359 -1.208,-1.9 -2.954,-3.402 -5.019,-4.316 z m -6.405,20.272 c -1.32,0.074 -2.641,-0.118 -3.884,-0.565 -1.243,-0.447 -2.382,-1.14 -3.348,-2.037 -0.967,-0.896 -1.74,-1.979 -2.274,-3.181 -0.534,-1.202 -0.818,-2.499 -0.834,-3.814 v -17.136 c -0.08,-1.145 0.087,-2.295 0.492,-3.371 0.405,-1.075 1.037,-2.052 1.853,-2.864 0.817,-0.813 1.8,-1.441 2.881,-1.843 1.082,-0.403 2.238,-0.57 3.391,-0.49 5.234,0 8.616,2.691 8.616,6.855 0.031,0.908 -0.127,1.813 -0.462,2.658 -0.336,0.845 -0.843,1.613 -1.489,2.256 -0.646,0.642 -1.418,1.146 -2.269,1.48 -0.85,0.334 -1.76,0.49 -2.673,0.46 v 3.427 c 5.918,0 9.742,3.364 9.742,8.568 0.051,1.282 -0.166,2.56 -0.639,3.754 -0.472,1.193 -1.189,2.276 -2.106,3.179 -0.916,0.903 -2.012,1.606 -3.216,2.064 -1.205,0.459 -2.493,0.663 -3.781,0.6 z"
       id="path4" />
  </mask>
  <path
     d="m 616.7342,270.475 c 1.249,-0.965 2.254,-2.207 2.937,-3.625 0.683,-1.419 1.025,-2.977 0.998,-4.549 0,-6.054 -4.961,-10.282 -12.063,-10.282 -1.609,-0.093 -3.219,0.154 -4.725,0.724 -1.506,0.57 -2.874,1.45 -4.013,2.583 -1.139,1.133 -2.025,2.493 -2.598,3.99 -0.573,1.498 -0.821,3.099 -0.728,4.698 V 300 h 3.447 v -10.075 c 1.337,1.377 2.945,2.465 4.725,3.196 1.779,0.732 3.69,1.09 5.615,1.054 1.741,0.064 3.478,-0.229 5.101,-0.859 1.623,-0.631 3.099,-1.587 4.335,-2.808 1.237,-1.221 2.208,-2.682 2.853,-4.291 0.646,-1.61 0.952,-3.334 0.899,-5.067 0.057,-2.246 -0.557,-4.459 -1.764,-6.359 -1.208,-1.9 -2.954,-3.402 -5.019,-4.316 z m -6.405,20.272 c -1.32,0.074 -2.641,-0.118 -3.884,-0.565 -1.243,-0.447 -2.382,-1.14 -3.348,-2.037 -0.967,-0.896 -1.74,-1.979 -2.274,-3.181 -0.534,-1.202 -0.818,-2.499 -0.834,-3.814 v -17.136 c -0.08,-1.145 0.087,-2.295 0.492,-3.371 0.405,-1.075 1.037,-2.052 1.853,-2.864 0.817,-0.813 1.8,-1.441 2.881,-1.843 1.082,-0.403 2.238,-0.57 3.391,-0.49 5.234,0 8.616,2.691 8.616,6.855 0.031,0.908 -0.127,1.813 -0.462,2.658 -0.336,0.845 -0.843,1.613 -1.489,2.256 -0.646,0.642 -1.418,1.146 -2.269,1.48 -0.85,0.334 -1.76,0.49 -2.673,0.46 v 3.427 c 5.918,0 9.742,3.364 9.742,8.568 0.051,1.282 -0.166,2.56 -0.639,3.754 -0.472,1.193 -1.189,2.276 -2.106,3.179 -0.916,0.903 -2.012,1.606 -3.216,2.064 -1.205,0.459 -2.493,0.663 -3.781,0.6 z"
     fill="#33e9e9"
     id="path7" />
  <path
     d="m 634.146,297.301 h -20 v 0.17 l 0.003,0.169 z m -12.063,-10.282 -1.153,19.967 0.576,0.033 h 0.577 z m -12.064,11.995 h 20 v -0.583 l -0.034,-0.583 z m 0,35.986 h -20 v 20 h 20 z m 3.447,0 v 20 h 20 v -20 z m 0,-10.075 14.348,-13.933 -34.348,-35.371 v 49.304 z m 10.34,4.25 0.735,-19.987 -0.556,-0.02 -0.557,0.01 z m 13.188,-13.025 -19.993,-0.504 -0.014,0.555 0.016,0.555 z m -23.528,0 h -20 v 0.122 l 10e-4,0.123 z m 0,-17.136 h 20 v -0.7 l -0.049,-0.698 z m 8.617,-8.568 -1.383,19.952 0.69,0.048 h 0.693 z m 8.616,6.855 h -20 v 0.335 l 0.011,0.334 z m -6.893,6.854 0.662,-19.989 -20.662,-0.684 v 20.673 z m 0,3.427 h -20 v 20 h 20 z m 9.742,8.568 h -20 v 0.403 l 0.016,0.403 z m 8.9,5.145 c 3.699,-2.861 6.688,-6.547 8.721,-10.771 l -36.042,-17.349 c 0.668,-1.387 1.645,-2.589 2.847,-3.519 z m 8.721,-10.771 c 2.034,-4.226 3.054,-8.869 2.974,-13.563 l -39.994,0.679 c -0.027,-1.548 0.31,-3.077 0.978,-4.465 z m 2.977,-13.223 c 0,-8.886 -3.809,-17.02 -10.395,-22.633 -6.356,-5.417 -14.228,-7.649 -21.668,-7.649 v 40 c -0.338,0 -2.179,-0.118 -4.279,-1.908 -2.329,-1.985 -3.658,-4.978 -3.658,-7.81 z m -30.911,-30.249 c -4.408,-0.254 -8.824,0.421 -12.957,1.986 l 14.159,37.41 c -1.121,0.424 -2.316,0.607 -3.507,0.538 z m -12.957,1.986 c -4.133,1.564 -7.895,3.984 -11.035,7.106 l 28.204,28.364 c -0.861,0.857 -1.888,1.515 -3.01,1.94 z m -11.035,7.106 c -3.14,3.123 -5.588,6.878 -7.174,11.022 l 37.356,14.3 c -0.44,1.15 -1.116,2.185 -1.978,3.042 z m -7.174,11.022 c -1.587,4.145 -2.275,8.581 -2.016,13.014 l 39.932,-2.332 c 0.072,1.235 -0.119,2.468 -0.56,3.618 z m -2.05,11.848 V 335 h 40 v -35.986 z m 20,55.986 h 3.447 v -40 h -3.447 z m 23.447,-20 v -10.075 h -40 V 335 Z m -34.348,3.858 c 3.253,3.35 7.158,5.99 11.47,7.762 l 15.205,-36.997 c 0.754,0.309 1.442,0.773 2.021,1.369 z m 11.47,7.762 c 4.311,1.772 8.939,2.639 13.596,2.551 l -0.756,-39.993 c 0.808,-0.015 1.613,0.135 2.365,0.445 z m 12.483,2.541 c 4.463,0.164 8.914,-0.585 13.079,-2.203 l -14.486,-37.285 c 0.918,-0.357 1.897,-0.521 2.877,-0.485 z m 13.079,-2.203 c 4.166,-1.618 7.96,-4.074 11.146,-7.219 l -28.107,-28.461 c 0.712,-0.703 1.556,-1.247 2.475,-1.605 z m 11.146,-7.219 c 3.185,-3.146 5.694,-6.916 7.363,-11.08 l -37.127,-14.885 c 0.378,-0.944 0.944,-1.792 1.657,-2.496 z m 7.363,-11.08 c 1.669,-4.163 2.462,-8.628 2.326,-13.114 l -39.982,1.211 c -0.031,-1.022 0.15,-2.038 0.529,-2.982 z m 2.329,-12.004 c 0.157,-6.223 -1.545,-12.345 -4.878,-17.59 l -33.761,21.452 c -0.918,-1.446 -1.392,-3.141 -1.348,-4.871 z m -4.878,-17.59 c -3.332,-5.245 -8.141,-9.372 -13.805,-11.879 l -16.187,36.579 c -1.535,-0.679 -2.851,-1.804 -3.769,-3.248 z m -29.433,6.713 c 1.362,-0.077 2.727,0.121 4.014,0.584 l -13.538,37.64 c 3.774,1.357 7.781,1.939 11.782,1.713 z m 4.014,0.584 c 1.287,0.463 2.475,1.184 3.488,2.124 l -27.21,29.319 c 2.945,2.734 6.411,4.84 10.184,6.197 z m 3.488,2.124 c 1.013,0.94 1.831,2.081 2.398,3.358 l -36.554,16.241 c 1.635,3.681 4,6.986 6.946,9.72 z m 2.398,3.358 c 0.567,1.276 0.87,2.659 0.887,4.062 l -39.997,0.489 c 0.05,4.031 0.92,8.009 2.556,11.69 z m 0.889,4.306 v -17.136 h -40 v 17.136 z m -0.049,-18.534 c 0.121,1.725 -0.132,3.454 -0.739,5.069 l -37.439,-14.083 c -1.417,3.766 -2.006,7.794 -1.724,11.811 z m -0.739,5.069 c -0.608,1.614 -1.553,3.071 -2.765,4.276 l -28.204,-28.365 c -2.845,2.83 -5.054,6.241 -6.47,10.006 z m -2.765,4.276 c -1.211,1.205 -2.661,2.13 -4.249,2.72 L 611.721,272.19 c -3.751,1.395 -7.166,3.577 -10.012,6.406 z m -4.249,2.72 c -1.587,0.591 -3.279,0.834 -4.964,0.717 l 2.765,-39.904 c -3.989,-0.276 -7.993,0.301 -11.744,1.696 z m -3.581,0.765 c -0.605,0 -3.242,-0.145 -6.18,-2.482 -3.387,-2.694 -5.204,-6.801 -5.204,-10.663 h 40 c 0,-8.027 -3.508,-15.561 -9.895,-20.641 -5.938,-4.723 -12.883,-6.214 -18.721,-6.214 z M 610.71,297.97 c -0.061,-1.845 0.259,-3.681 0.938,-5.392 l 37.177,14.762 c 1.35,-3.402 1.986,-7.047 1.863,-10.709 z m 0.938,-5.392 c 0.68,-1.711 1.702,-3.257 2.998,-4.545 l 28.204,28.364 c 2.588,-2.574 4.624,-5.655 5.975,-9.057 z m 2.998,-4.545 c 1.295,-1.288 2.836,-2.292 4.524,-2.955 l 14.618,37.234 c 3.389,-1.331 6.474,-3.342 9.062,-5.915 z m 4.524,-2.955 c 1.688,-0.662 3.491,-0.972 5.298,-0.912 l -1.324,39.978 c 3.634,0.121 7.257,-0.502 10.644,-1.832 z m -15.364,19.077 v 3.427 h 40 v -3.427 z m 20,23.427 c -0.73,0 -3.37,-0.232 -6.119,-2.65 -3.011,-2.648 -4.139,-6.174 -4.139,-8.782 h 40 c 0,-7.811 -3.041,-15.622 -9.443,-21.253 -6.141,-5.401 -13.651,-7.315 -20.299,-7.315 z m -10.242,-10.626 c -0.061,-1.51 0.195,-3.014 0.75,-4.414 l 37.191,14.724 c 1.499,-3.788 2.191,-7.848 2.026,-11.921 z m 0.75,-4.414 c 0.554,-1.4 1.392,-2.661 2.454,-3.707 l 28.07,28.496 c 2.895,-2.852 5.168,-6.278 6.667,-10.065 z m 2.454,-3.707 c 1.062,-1.046 2.324,-1.854 3.703,-2.379 l 14.231,37.383 c 3.789,-1.443 7.242,-3.657 10.136,-6.508 z m 3.703,-2.379 c 1.379,-0.525 2.849,-0.758 4.318,-0.685 l -1.966,39.951 c 4.046,0.199 8.091,-0.441 11.879,-1.883 z"
     fill="#33e9e9"
     mask="url(#path-2-inside-1_153_322)"
     id="path9"
     transform="translate(-13.4768,-35)" />
  <path
     d="m 43.3232,189.6 c 0,22.4 13,36.6 37.8,42 l 23.2,5.2 c 12,2.6 17,8.4 17,18.2 0,12.2 -10.8,19.6 -27.8,19.6 -16.4,0 -26.4,-7.4 -26.6,-19.8 h -25.6 c 0.6,26.2 21,42.8 52.2,42.8 32.2,0 53.4,-17.6 53.4,-44.8 0,-21.8 -12.2,-34.6 -37.2,-40 l -23,-5 c -12.2,-2.8 -17.8,-8.6 -17.8,-19 0,-12.2 10.2,-19.8 26,-19.8 14.4,0 23.4,7.4 24,20 h 25.6 c -0.8,-26.4 -19.6,-42.8 -49.2,-42.8 -30.8,0 -52,17.8 -52,43.4 z M 198.0822,295 v -78.4 h 19.2 v -20.4 h -19.2 v -30.8 h -24.4 v 30.8 h -19 v 20.4 h 19 V 295 Z m 25.593,-49.6 c 0,30.8 22.2,52 52.8,52 30.6,0 52.8,-21.2 52.8,-52 0,-30.8 -22.2,-52 -52.8,-52 -30.6,0 -52.8,21.2 -52.8,52 z m 24.4,0 c 0,-18 11.6,-30.2 28.4,-30.2 16.8,0 28.4,12.2 28.4,30.2 0,18 -11.6,30.2 -28.4,30.2 -16.8,0 -28.4,-12.2 -28.4,-30.2 z m 92.74,0 c 0,31.4 19.6,52.2 49.6,52.2 25.8,0 45,-15.8 48,-38.8 h -24.6 c -2.6,10.8 -11.2,16.8 -23.4,16.8 -15.6,0 -25.2,-11.6 -25.2,-30.2 0,-18.6 10.4,-30.4 26,-30.4 11.6,0 19.8,5.8 22.6,17 h 24.4 c -2.6,-23.8 -21,-38.8 -48,-38.8 -29.2,0 -49.4,21.6 -49.4,52.2 z m 138.361,49.6 v -26.6 l 14.4,-15 25.8,41.6 h 28 l -36.8,-59.6 37.6,-39.2 h -30.6 l -38.4,41.4 v -91.4 h -24.2 V 295 Z"
     fill="#33e9e9"
     id="path11" />
  <g
     opacity="0.3"
     id="g17"
     transform="translate(-13.4768,-35)">
    <path
       d="m 19.5,144.5 c 0,56 32.5,91.5 94.5,105 l 58,13 c 30,6.5 42.5,21 42.5,45.5 0,30.5 -27,49 -69.5,49 -41,0 -66,-18.5 -66.5,-49.5 h -64 c 1.5,65.5 52.5,107 130.5,107 80.5,0 133.5,-44 133.5,-112 0,-54.5 -30.5,-86.5 -93,-100 L 128,190 C 97.5,183 83.5,168.5 83.5,142.5 83.5,112 109,93 148.5,93 c 36,0 58.5,18.5 60,50 h 64 c -2,-66 -49,-107 -123,-107 -77,0 -130,44.5 -130,108.5 z M 406.398,408 V 212 h 48 v -51 h -48 V 84 h -61 v 77 h -47.5 v 51 h 47.5 v 196 z m 63.981,-124 c 0,77 55.5,130 132,130 76.5,0 132,-53 132,-130 0,-77 -55.5,-130 -132,-130 -76.5,0 -132,53 -132,130 z m 61,0 c 0,-45 29,-75.5 71,-75.5 42,0 71,30.5 71,75.5 0,45 -29,75.5 -71,75.5 -42,0 -71,-30.5 -71,-75.5 z m 231.851,0 c 0,78.5 49,130.5 124,130.5 64.5,0 112.5,-39.5 120,-97 h -61.5 c -6.5,27 -28,42 -58.5,42 -39,0 -63,-29 -63,-75.5 0,-46.5 26,-76 65,-76 29,0 49.5,14.5 56.5,42.5 h 61 c -6.5,-59.5 -52.5,-97 -120,-97 -73,0 -123.5,54 -123.5,130.5 z m 345.9,124 v -66.5 l 36,-37.5 64.5,104 h 70 l -92,-149 94,-98 h -76.5 l -96,103.5 V 36 h -60.5 v 372 z"
       fill="url(#paint0_linear_153_322)"
       id="path13"
       style="fill:url(#paint0_linear_153_322)" />
    <path
       d="m 114,249.5 0.219,-0.976 -0.006,-0.001 z m 58,13 -0.219,0.976 0.007,10e-4 z m -93.5,45 0.9999,-0.016 L 79.484,306.5 H 78.5 Z m -64,0 v -1 h -1.0232 l 0.0235,1.023 z m 171,-105 -0.212,0.977 h 10e-4 z M 128,190 l -0.224,0.975 0.012,0.002 z m 80.5,-47 -0.999,0.048 0.045,0.952 h 0.954 z m 64,0 v 1 h 1.031 l -0.031,-1.03 z m -254,1.5 c 0,28.204 8.1901,51.332 24.2582,69.108 16.0556,17.762 39.8935,30.09 71.0288,36.869 l 0.426,-1.954 C 83.3483,241.802 59.9362,229.63 44.2418,212.267 28.5599,194.918 20.5,172.295 20.5,144.5 Z m 95.281,105.976 58,13 0.438,-1.952 -58,-13 z m 58.007,13.001 c 14.893,3.227 25.293,8.41 31.975,15.699 6.662,7.268 9.737,16.751 9.737,28.824 h 2 c 0,-12.427 -3.175,-22.444 -10.263,-30.176 -7.068,-7.711 -17.918,-13.028 -33.025,-16.301 z M 213.5,308 c 0,14.912 -6.581,26.861 -18.386,35.118 C 183.273,351.401 166.122,356 145,356 v 2 c 21.378,0 38.977,-4.651 51.261,-13.243 C 208.581,336.139 215.5,323.588 215.5,308 Z M 145,356 c -20.365,0 -36.631,-4.596 -47.841,-12.928 -11.1773,-8.306 -17.4139,-20.385 -17.6591,-35.588 l -1.9998,0.032 c 0.2548,15.797 6.7682,28.468 18.4659,37.162 C 107.631,353.346 124.365,358 145,358 Z M 78.5,306.5 h -64 v 2 h 64 z m -64.9997,1.023 c 0.7563,33.025 14.0028,60.056 36.929,78.813 C 73.3376,405.08 105.83,415.5 145,415.5 v -2 C 106.17,413.5 74.1624,403.17 51.6957,384.789 29.2469,366.421 16.2434,339.952 15.4997,307.477 Z M 145,415.5 c 40.425,0 74.046,-11.048 97.579,-30.733 C 266.13,365.068 279.5,336.781 279.5,302.5 h -2 c 0,33.719 -13.13,61.432 -36.204,80.733 C 218.204,402.548 185.075,413.5 145,413.5 Z m 134.5,-113 c 0,-27.448 -7.687,-49.336 -23.332,-66.058 -15.626,-16.702 -39.093,-28.145 -70.457,-34.919 l -0.422,1.954 c 31.136,6.726 54.169,18.033 69.418,34.331 15.23,16.278 22.793,37.64 22.793,64.692 z m -93.788,-100.977 -57.5,-12.5 -0.424,1.954 57.5,12.5 z M 128.224,189.025 C 113.071,185.548 102.162,180.237 95.0398,172.689 87.9419,165.166 84.5,155.309 84.5,142.5 h -2 c 0,13.191 3.5581,23.584 11.0852,31.561 7.5028,7.952 18.8438,13.391 34.1908,16.914 z M 84.5,142.5 c 0,-14.939 6.2299,-27.018 17.291,-35.39 C 112.881,98.716 128.897,94 148.5,94 v -2 c -19.897,0 -36.381,4.784 -47.916,13.515 C 89.0201,114.268 82.5,126.939 82.5,142.5 Z m 64,-48.5 c 17.837,0 32.213,4.5827 42.299,12.957 10.069,8.36 15.964,20.583 16.702,36.091 l 1.998,-0.096 C 208.737,126.96 202.632,114.183 192.076,105.418 181.537,96.6673 166.663,92 148.5,92 Z m 60,50 h 64 v -2 h -64 z m 65,-1.03 C 272.492,109.726 260.142,82.7006 238.657,63.9958 217.183,45.3012 186.68,35 149.5,35 v 2 c 36.82,0 66.817,10.1988 87.843,28.5042 21.015,18.2952 33.165,44.7698 34.157,77.5258 z M 149.5,35 C 110.813,35 78.0715,46.1798 54.9836,65.4828 31.8824,84.7969 18.5,112.202 18.5,144.5 h 2 C 20.5,112.798 33.6176,85.9531 56.2664,67.0172 78.9285,48.0702 111.187,37 149.5,37 Z m 256.898,373 v 1 h 1 v -1 z m 0,-196 v -1 h -1 v 1 z m 48,0 v 1 h 1 v -1 z m 0,-51 h 1 v -1 h -1 z m -48,0 h -1 v 1 h 1 z m 0,-77 h 1 v -1 h -1 z m -61,0 v -1 h -1 v 1 z m 0,77 v 1 h 1 v -1 z m -47.5,0 v -1 h -1 v 1 z m 0,51 h -1 v 1 h 1 z m 47.5,0 h 1 v -1 h -1 z m 0,196 h -1 v 1 h 1 z m 62,0 V 212 h -2 v 196 z m -1,-195 h 48 v -2 h -48 z m 49,-1 v -51 h -2 v 51 z m -1,-52 h -48 v 2 h 48 z m -47,1 V 84 h -2 v 77 z m -1,-78 h -61 v 2 h 61 z m -62,1 v 77 h 2 V 84 Z m 1,76 h -47.5 v 2 h 47.5 z m -48.5,1 v 51 h 2 v -51 z m 1,52 h 47.5 v -2 h -47.5 z m 46.5,-1 v 196 h 2 V 212 Z m 1,197 h 61 v -2 h -61 z M 469.379,284 c 0,38.749 13.969,71.514 37.614,94.591 23.642,23.074 56.901,36.409 95.386,36.409 v -2 C 564.364,413 531.623,399.835 508.39,377.159 485.159,354.486 471.379,322.251 471.379,284 Z m 133,131 c 38.485,0 71.744,-13.335 95.386,-36.409 23.644,-23.077 37.614,-55.842 37.614,-94.591 h -2 c 0,38.251 -13.781,70.486 -37.011,93.159 C 673.135,399.835 640.394,413 602.379,413 Z m 133,-131 c 0,-38.749 -13.97,-71.514 -37.614,-94.591 C 674.123,166.335 640.864,153 602.379,153 v 2 c 38.015,0 70.756,13.165 93.989,35.841 23.23,22.673 37.011,54.908 37.011,93.159 z m -133,-131 c -38.485,0 -71.744,13.335 -95.386,36.409 -23.645,23.077 -37.614,55.842 -37.614,94.591 h 2 c 0,-38.251 13.78,-70.486 37.011,-93.159 C 531.623,168.165 564.364,155 602.379,155 Z m -70,131 c 0,-22.284 7.177,-40.901 19.477,-53.939 12.296,-13.033 29.775,-20.561 50.523,-20.561 v -2 c -21.252,0 -39.273,7.722 -51.977,21.189 -12.7,13.462 -20.023,32.595 -20.023,55.311 z m 70,-74.5 c 20.748,0 38.227,7.528 50.523,20.561 12.3,13.038 19.477,31.655 19.477,53.939 h 2 c 0,-22.716 -7.323,-41.849 -20.023,-55.311 C 641.652,215.222 623.631,207.5 602.379,207.5 Z m 70,74.5 c 0,22.284 -7.177,40.901 -19.477,53.939 -12.296,13.033 -29.775,20.561 -50.523,20.561 v 2 c 21.252,0 39.273,-7.722 51.977,-21.189 12.7,-13.462 20.023,-32.595 20.023,-55.311 z m -70,74.5 c -20.748,0 -38.227,-7.528 -50.523,-20.561 -12.3,-13.038 -19.477,-31.655 -19.477,-53.939 h -2 c 0,22.716 7.323,41.849 20.023,55.311 12.704,13.467 30.725,21.189 51.977,21.189 z m 404.851,-41 0.99,0.129 0.15,-1.129 h -1.14 z m -61.5,0 v -1 h -0.787 l -0.185,0.766 z m 0,-67 -0.97,0.243 0.19,0.757 h 0.78 z m 61,0 v 1 h 1.12 l -0.13,-1.109 z M 762.23,284 c 0,39.459 12.319,72.345 34.15,95.375 21.836,23.036 53.11,36.125 90.85,36.125 v -2 c -37.259,0 -67.985,-12.911 -89.399,-35.5 -21.419,-22.595 -33.601,-54.959 -33.601,-94 z m 125,131.5 c 64.933,0 113.42,-39.807 120.99,-97.871 l -1.98,-0.258 C 998.812,374.307 951.297,413.5 887.23,413.5 Z m 120,-99 h -61.5 v 2 h 61.5 z m -62.472,0.766 c -3.198,13.286 -10.07,23.571 -19.858,30.545 -9.796,6.98 -22.581,10.689 -37.67,10.689 v 2 c 15.412,0 28.627,-3.791 38.831,-11.061 10.212,-7.276 17.34,-17.991 20.642,-31.705 z M 887.23,358.5 c -19.231,0 -34.689,-7.139 -45.356,-19.952 C 831.189,325.713 825.23,307.088 825.23,284 h -2 c 0,23.412 6.042,42.537 17.107,55.827 11.083,13.312 27.125,20.673 46.893,20.673 z m -62,-74.5 c 0,-23.069 6.449,-41.819 17.633,-54.784 C 854.034,216.264 870,209 889.23,209 v -2 c -19.769,0 -36.303,7.486 -47.882,20.909 -11.566,13.41 -18.118,32.66 -18.118,56.091 z m 64,-75 c 14.334,0 26.488,3.582 35.905,10.554 9.413,6.967 16.173,17.379 19.625,31.189 l 1.941,-0.486 C 943.153,236.067 936.163,225.229 926.325,217.946 916.493,210.668 903.897,207 889.23,207 Z m 56.5,42.5 h 61 v -2 h -61 z m 61.99,-1.109 c -3.27,-29.993 -16.516,-54.49 -37.485,-71.48 C 949.274,161.927 920.664,152.5 886.73,152.5 v 2 c 33.567,0 61.707,9.323 82.246,25.964 20.531,16.635 33.534,40.638 36.764,70.145 z M 886.73,152.5 c -36.757,0 -67.901,13.601 -89.852,36.876 C 774.931,212.647 762.23,245.528 762.23,284 h 2 c 0,-38.028 12.549,-70.397 34.103,-93.251 21.549,-22.85 52.155,-36.249 88.397,-36.249 z m 222.4,255.5 v 1 h 1 v -1 z m 0,-66.5 -0.72,-0.693 -0.28,0.291 v 0.402 z m 36,-37.5 0.85,-0.527 -0.68,-1.095 -0.89,0.929 z m 64.5,104 -0.85,0.527 0.3,0.473 h 0.55 z m 70,0 v 1 h 1.8 l -0.95,-1.525 z m -92,-149 -0.72,-0.692 -0.53,0.559 0.4,0.658 z m 94,-98 0.72,0.692 1.63,-1.692 h -2.35 z m -76.5,0 v -1 h -0.43 l -0.3,0.32 z m -96,103.5 h -1 v 2.549 l 1.74,-1.869 z m 0,-228.5 h 1 v -1 h -1 z m -60.5,0 v -1 h -1 v 1 z m 0,372 h -1 v 1 h 1 z m 61.5,0 v -66.5 h -2 V 408 Z m -0.28,-65.807 36,-37.5 -1.44,-1.386 -36,37.5 z m 34.43,-37.666 64.5,104 1.7,-1.054 -64.5,-104 z M 1209.63,409 h 70 v -2 h -70 z m 70.85,-1.525 -92,-149 -1.7,1.05 92,149 z m -92.13,-147.783 94,-98 -1.44,-1.384 -94,98 z M 1281.63,160 h -76.5 v 2 h 76.5 z m -77.23,0.32 -96,103.5 1.47,1.36 96,-103.5 z M 1110.13,264.5 V 36 h -2 v 228.5 z m -1,-229.5 h -60.5 v 2 h 60.5 z m -61.5,1 v 372 h 2 V 36 Z m 1,373 h 60.5 v -2 h -60.5 z"
       fill="url(#paint1_linear_153_322)"
       id="path15"
       style="fill:url(#paint1_linear_153_322)" />
  </g>
  <defs
     id="defs29">
    <linearGradient
       id="paint0_linear_153_322"
       x1="756"
       y1="0"
       x2="769.51398"
       y2="410.89999"
       gradientUnits="userSpaceOnUse">
      <stop
         id="stop19" />
      <stop
         offset="0.91119"
         stop-color="#33E9E9"
         stop-opacity="0"
         id="stop21" />
    </linearGradient>
    <linearGradient
       id="paint1_linear_153_322"
       x1="440"
       y1="-27.8901"
       x2="649.70001"
       y2="714.64301"
       gradientUnits="userSpaceOnUse">
      <stop
         offset="0.283066"
         stop-color="#33E9E9"
         id="stop24" />
      <stop
         offset="0.719555"
         stop-color="#33E9E9"
         stop-opacity="0"
         id="stop26" />
    </linearGradient>
  </defs>
</svg>
