<svg width="23" height="48" viewBox="0 0 23 48" fill="none" xmlns="http://www.w3.org/2000/svg">
<path d="M18.0509 16.025C17.2861 17.1555 16.4881 18.2527 14.9919 18.2527C14.0609 18.2527 12.7974 17.7207 11.4674 17.1887C10.1374 16.6567 8.77415 16.1247 7.57715 16.1247C5.24965 16.1247 3.9529 17.6542 2.78915 19.4497L4.2189 20.3807C5.0169 19.1172 5.8814 17.9202 7.51065 17.9202C8.4749 17.9202 9.50565 18.3857 10.3701 18.7182L11.9329 19.2835C12.9636 19.6825 13.8946 20.0482 15.0251 20.0482C17.1864 20.0482 18.3501 18.5187 19.4806 16.9227L18.0509 16.025Z" fill="black"/>
<path d="M18.0509 23.942C17.2861 25.0725 16.4881 26.1697 14.9919 26.1697C14.0609 26.1697 12.7974 25.6377 11.4674 25.1057C10.1374 24.5737 8.77415 24.0417 7.57715 24.0417C5.24965 24.0417 3.9529 25.5712 2.78915 27.3667L4.2189 28.2977C5.0169 27.0342 5.8814 25.8372 7.51065 25.8372C8.4749 25.8372 9.50565 26.3027 10.3701 26.6352L11.9329 27.2005C12.9636 27.5995 13.8946 27.9652 15.0251 27.9652C17.1864 27.9652 18.3501 26.4357 19.4806 24.8397L18.0509 23.942Z" fill="black"/>
</svg>
