<svg width="44" height="44" viewBox="0 0 44 44" fill="none" xmlns="http://www.w3.org/2000/svg">
<path d="M25.1817 22L31.341 15.8407C32.2197 14.9621 32.2197 13.5376 31.341 12.659C30.4624 11.7803 29.038 11.7803 28.1593 12.659L22 18.8183L15.8407 12.659C14.9621 11.7803 13.5376 11.7803 12.659 12.659C11.7803 13.5376 11.7803 14.9621 12.659 15.8407L18.8183 22L12.659 28.1593C11.7803 29.0379 11.7803 30.4624 12.659 31.341C13.0983 31.7803 13.674 32 14.2498 32C14.8256 32 15.4014 31.7803 15.8406 31.341L22 25.1817L28.1593 31.341C28.5986 31.7803 29.1744 32 29.7502 32C30.3259 32 30.9017 31.7803 31.341 31.341C32.2196 30.4624 32.2196 29.0379 31.341 28.1593L25.1817 22Z" fill="white"/>
<rect x="0.5" y="0.5" width="43" height="43" rx="21.5" stroke="white"/>
</svg>
