<svg width="112" height="114" viewBox="0 0 112 114" fill="none" xmlns="http://www.w3.org/2000/svg">
<path d="M29.2 113V102.5H31.645L35.305 112.205H35.5V102.5H36.745V113H34.3L30.655 103.28H30.445V113H29.2ZM41.8159 113.21C41.0759 113.21 40.4259 113.055 39.8659 112.745C39.3059 112.425 38.8709 111.98 38.5609 111.41C38.2509 110.84 38.0959 110.18 38.0959 109.43V109.25C38.0959 108.49 38.2509 107.825 38.5609 107.255C38.8709 106.685 39.3009 106.245 39.8509 105.935C40.4009 105.615 41.0309 105.455 41.7409 105.455C42.4309 105.455 43.0409 105.605 43.5709 105.905C44.1009 106.195 44.5159 106.615 44.8159 107.165C45.1159 107.715 45.2659 108.36 45.2659 109.1V109.64H39.2809C39.3109 110.43 39.5659 111.05 40.0459 111.5C40.5259 111.94 41.1259 112.16 41.8459 112.16C42.4759 112.16 42.9609 112.015 43.3009 111.725C43.6409 111.435 43.9009 111.09 44.0809 110.69L45.1009 111.185C44.9509 111.495 44.7409 111.805 44.4709 112.115C44.2109 112.425 43.8659 112.685 43.4359 112.895C43.0159 113.105 42.4759 113.21 41.8159 113.21ZM39.2959 108.665H44.0659C44.0259 107.985 43.7909 107.455 43.3609 107.075C42.9409 106.695 42.4009 106.505 41.7409 106.505C41.0709 106.505 40.5209 106.695 40.0909 107.075C39.6609 107.455 39.3959 107.985 39.2959 108.665ZM48.9753 113C48.5553 113 48.2303 112.885 48.0003 112.655C47.7803 112.425 47.6703 112.11 47.6703 111.71V106.7H45.4653V105.665H47.6703V103.055H48.8553V105.665H51.2553V106.7H48.8553V111.53C48.8553 111.83 49.0003 111.98 49.2903 111.98H50.9253V113H48.9753ZM53.4447 113L51.9747 105.665H53.1747L54.3897 112.205H54.5997L56.2047 105.665H58.1697L59.7747 112.205H59.9847L61.1997 105.665H62.3997L60.9297 113H58.9047L57.2847 106.46H57.0897L55.4697 113H53.4447ZM66.9299 113.21C66.1899 113.21 65.5349 113.055 64.9649 112.745C64.4049 112.435 63.9649 112 63.6449 111.44C63.3349 110.87 63.1799 110.2 63.1799 109.43V109.235C63.1799 108.475 63.3349 107.81 63.6449 107.24C63.9649 106.67 64.4049 106.23 64.9649 105.92C65.5349 105.61 66.1899 105.455 66.9299 105.455C67.6699 105.455 68.3199 105.61 68.8799 105.92C69.4499 106.23 69.8899 106.67 70.1999 107.24C70.5199 107.81 70.6799 108.475 70.6799 109.235V109.43C70.6799 110.2 70.5199 110.87 70.1999 111.44C69.8899 112 69.4499 112.435 68.8799 112.745C68.3199 113.055 67.6699 113.21 66.9299 113.21ZM66.9299 112.145C67.7099 112.145 68.3299 111.9 68.7899 111.41C69.2599 110.91 69.4949 110.24 69.4949 109.4V109.265C69.4949 108.425 69.2599 107.76 68.7899 107.27C68.3299 106.77 67.7099 106.52 66.9299 106.52C66.1599 106.52 65.5399 106.77 65.0699 107.27C64.5999 107.76 64.3649 108.425 64.3649 109.265V109.4C64.3649 110.24 64.5999 110.91 65.0699 111.41C65.5399 111.9 66.1599 112.145 66.9299 112.145ZM72.0624 113V105.665H73.2174V106.565H73.4274C73.5574 106.245 73.7574 106.01 74.0274 105.86C74.2974 105.71 74.6524 105.635 75.0924 105.635H75.9624V106.715H75.0174C74.4874 106.715 74.0574 106.865 73.7274 107.165C73.4074 107.455 73.2474 107.91 73.2474 108.53V113H72.0624ZM76.9667 113V102.5H78.1517V108.68H78.3617L81.7217 105.665H83.3717L79.3067 109.235L83.4917 113H81.8567L78.3617 109.805H78.1517V113H76.9667Z" fill="#3BF3FF"/>
<path d="M0.966 99V96.564H2.898V86.736H0.966V84.3H8.526C9.422 84.3 10.199 84.454 10.857 84.762C11.529 85.056 12.047 85.483 12.411 86.043C12.789 86.589 12.978 87.247 12.978 88.017V88.227C12.978 88.899 12.852 89.452 12.6 89.886C12.348 90.306 12.047 90.635 11.697 90.873C11.361 91.097 11.039 91.258 10.731 91.356V91.734C11.039 91.818 11.375 91.979 11.739 92.217C12.103 92.441 12.411 92.77 12.663 93.204C12.929 93.638 13.062 94.205 13.062 94.905V95.115C13.062 95.927 12.873 96.627 12.495 97.215C12.117 97.789 11.592 98.23 10.92 98.538C10.262 98.846 9.492 99 8.61 99H0.966ZM5.67 96.48H8.274C8.876 96.48 9.359 96.333 9.723 96.039C10.101 95.745 10.29 95.325 10.29 94.779V94.569C10.29 94.023 10.108 93.603 9.744 93.309C9.38 93.015 8.89 92.868 8.274 92.868H5.67V96.48ZM5.67 90.348H8.232C8.806 90.348 9.275 90.201 9.639 89.907C10.017 89.613 10.206 89.207 10.206 88.689V88.479C10.206 87.947 10.024 87.541 9.66 87.261C9.296 86.967 8.82 86.82 8.232 86.82H5.67V90.348ZM14.3653 99V84.3H17.0113V99H14.3653ZM22.1274 99.294C21.3854 99.294 20.7204 99.168 20.1324 98.916C19.5444 98.65 19.0754 98.272 18.7254 97.782C18.3894 97.278 18.2214 96.669 18.2214 95.955C18.2214 95.241 18.3894 94.646 18.7254 94.17C19.0754 93.68 19.5514 93.316 20.1534 93.078C20.7694 92.826 21.4694 92.7 22.2534 92.7H25.1094V92.112C25.1094 91.622 24.9554 91.223 24.6474 90.915C24.3394 90.593 23.8494 90.432 23.1774 90.432C22.5194 90.432 22.0294 90.586 21.7074 90.894C21.3854 91.188 21.1754 91.573 21.0774 92.049L18.6414 91.23C18.8094 90.698 19.0754 90.215 19.4394 89.781C19.8174 89.333 20.3144 88.976 20.9304 88.71C21.5604 88.43 22.3234 88.29 23.2194 88.29C24.5914 88.29 25.6764 88.633 26.4744 89.319C27.2724 90.005 27.6714 90.999 27.6714 92.301V96.186C27.6714 96.606 27.8674 96.816 28.2594 96.816H29.0994V99H27.3354C26.8174 99 26.3904 98.874 26.0544 98.622C25.7184 98.37 25.5504 98.034 25.5504 97.614V97.593H25.1514C25.0954 97.761 24.9694 97.985 24.7734 98.265C24.5774 98.531 24.2694 98.769 23.8494 98.979C23.4294 99.189 22.8554 99.294 22.1274 99.294ZM22.5894 97.152C23.3314 97.152 23.9334 96.949 24.3954 96.543C24.8714 96.123 25.1094 95.57 25.1094 94.884V94.674H22.4424C21.9524 94.674 21.5674 94.779 21.2874 94.989C21.0074 95.199 20.8674 95.493 20.8674 95.871C20.8674 96.249 21.0144 96.557 21.3084 96.795C21.6024 97.033 22.0294 97.152 22.5894 97.152ZM34.672 99.294C33.664 99.294 32.747 99.084 31.921 98.664C31.109 98.244 30.465 97.635 29.989 96.837C29.513 96.039 29.275 95.073 29.275 93.939V93.645C29.275 92.511 29.513 91.545 29.989 90.747C30.465 89.949 31.109 89.34 31.921 88.92C32.747 88.5 33.664 88.29 34.672 88.29C35.666 88.29 36.52 88.465 37.234 88.815C37.948 89.165 38.522 89.648 38.956 90.264C39.404 90.866 39.698 91.552 39.838 92.322L37.276 92.868C37.22 92.448 37.094 92.07 36.898 91.734C36.702 91.398 36.422 91.132 36.058 90.936C35.708 90.74 35.267 90.642 34.735 90.642C34.203 90.642 33.72 90.761 33.286 90.999C32.866 91.223 32.53 91.566 32.278 92.028C32.04 92.476 31.921 93.029 31.921 93.687V93.897C31.921 94.555 32.04 95.115 32.278 95.577C32.53 96.025 32.866 96.368 33.286 96.606C33.72 96.83 34.203 96.942 34.735 96.942C35.533 96.942 36.135 96.739 36.541 96.333C36.961 95.913 37.227 95.367 37.339 94.695L39.901 95.304C39.719 96.046 39.404 96.725 38.956 97.341C38.522 97.943 37.948 98.419 37.234 98.769C36.52 99.119 35.666 99.294 34.672 99.294ZM41.0337 99V84.3H43.6797V92.427H44.0577L47.5017 88.584H50.9457L46.1367 93.624L51.1137 99H47.7117L44.0577 94.863H43.6797V99H41.0337ZM51.7532 99V84.3H56.8982L59.4392 97.11H59.8172L62.3582 84.3H67.5032V99H64.8152V86.337H64.4372L61.9172 99H57.3392L54.8192 86.337H54.4412V99H51.7532ZM72.5397 99.294C71.7977 99.294 71.1327 99.168 70.5447 98.916C69.9567 98.65 69.4877 98.272 69.1377 97.782C68.8017 97.278 68.6337 96.669 68.6337 95.955C68.6337 95.241 68.8017 94.646 69.1377 94.17C69.4877 93.68 69.9637 93.316 70.5657 93.078C71.1817 92.826 71.8817 92.7 72.6657 92.7H75.5217V92.112C75.5217 91.622 75.3677 91.223 75.0597 90.915C74.7517 90.593 74.2617 90.432 73.5897 90.432C72.9317 90.432 72.4417 90.586 72.1197 90.894C71.7977 91.188 71.5877 91.573 71.4897 92.049L69.0537 91.23C69.2217 90.698 69.4877 90.215 69.8517 89.781C70.2297 89.333 70.7267 88.976 71.3427 88.71C71.9727 88.43 72.7357 88.29 73.6317 88.29C75.0037 88.29 76.0887 88.633 76.8867 89.319C77.6847 90.005 78.0837 90.999 78.0837 92.301V96.186C78.0837 96.606 78.2797 96.816 78.6717 96.816H79.5117V99H77.7477C77.2297 99 76.8027 98.874 76.4667 98.622C76.1307 98.37 75.9627 98.034 75.9627 97.614V97.593H75.5637C75.5077 97.761 75.3817 97.985 75.1857 98.265C74.9897 98.531 74.6817 98.769 74.2617 98.979C73.8417 99.189 73.2677 99.294 72.5397 99.294ZM73.0017 97.152C73.7437 97.152 74.3457 96.949 74.8077 96.543C75.2837 96.123 75.5217 95.57 75.5217 94.884V94.674H72.8547C72.3647 94.674 71.9797 94.779 71.6997 94.989C71.4197 95.199 71.2797 95.493 71.2797 95.871C71.2797 96.249 71.4267 96.557 71.7207 96.795C72.0147 97.033 72.4417 97.152 73.0017 97.152ZM79.6873 93.834V93.498C79.6873 92.406 79.9043 91.475 80.3383 90.705C80.7723 89.921 81.3463 89.326 82.0603 88.92C82.7883 88.5 83.5793 88.29 84.4333 88.29C85.3853 88.29 86.1063 88.458 86.5963 88.794C87.0863 89.13 87.4433 89.48 87.6673 89.844H88.0453V88.584H90.6493V100.848C90.6493 101.562 90.4393 102.129 90.0193 102.549C89.5993 102.983 89.0393 103.2 88.3393 103.2H81.3673V100.89H87.4153C87.8073 100.89 88.0033 100.68 88.0033 100.26V97.551H87.6253C87.4853 97.775 87.2893 98.006 87.0373 98.244C86.7853 98.468 86.4493 98.657 86.0293 98.811C85.6093 98.965 85.0773 99.042 84.4333 99.042C83.5793 99.042 82.7883 98.839 82.0603 98.433C81.3463 98.013 80.7723 97.418 80.3383 96.648C79.9043 95.864 79.6873 94.926 79.6873 93.834ZM85.1893 96.732C86.0013 96.732 86.6803 96.473 87.2263 95.955C87.7723 95.437 88.0453 94.709 88.0453 93.771V93.561C88.0453 92.609 87.7723 91.881 87.2263 91.377C86.6943 90.859 86.0153 90.6 85.1893 90.6C84.3773 90.6 83.6983 90.859 83.1523 91.377C82.6063 91.881 82.3333 92.609 82.3333 93.561V93.771C82.3333 94.709 82.6063 95.437 83.1523 95.955C83.6983 96.473 84.3773 96.732 85.1893 96.732ZM92.5329 99V88.584H95.1789V99H92.5329ZM93.8559 87.366C93.3799 87.366 92.9739 87.212 92.6379 86.904C92.3159 86.596 92.1549 86.19 92.1549 85.686C92.1549 85.182 92.3159 84.776 92.6379 84.468C92.9739 84.16 93.3799 84.006 93.8559 84.006C94.3459 84.006 94.7519 84.16 95.0739 84.468C95.3959 84.776 95.5569 85.182 95.5569 85.686C95.5569 86.19 95.3959 86.596 95.0739 86.904C94.7519 87.212 94.3459 87.366 93.8559 87.366ZM101.954 99.294C100.946 99.294 100.029 99.084 99.203 98.664C98.391 98.244 97.747 97.635 97.271 96.837C96.795 96.039 96.557 95.073 96.557 93.939V93.645C96.557 92.511 96.795 91.545 97.271 90.747C97.747 89.949 98.391 89.34 99.203 88.92C100.029 88.5 100.946 88.29 101.954 88.29C102.948 88.29 103.802 88.465 104.516 88.815C105.23 89.165 105.804 89.648 106.238 90.264C106.686 90.866 106.98 91.552 107.12 92.322L104.558 92.868C104.502 92.448 104.376 92.07 104.18 91.734C103.984 91.398 103.704 91.132 103.34 90.936C102.99 90.74 102.549 90.642 102.017 90.642C101.485 90.642 101.002 90.761 100.568 90.999C100.148 91.223 99.812 91.566 99.56 92.028C99.322 92.476 99.203 93.029 99.203 93.687V93.897C99.203 94.555 99.322 95.115 99.56 95.577C99.812 96.025 100.148 96.368 100.568 96.606C101.002 96.83 101.485 96.942 102.017 96.942C102.815 96.942 103.417 96.739 103.823 96.333C104.243 95.913 104.509 95.367 104.621 94.695L107.183 95.304C107.001 96.046 106.686 96.725 106.238 97.341C105.804 97.943 105.23 98.419 104.516 98.769C103.802 99.119 102.948 99.294 101.954 99.294Z" fill="#3BF3FF"/>
<path fill-rule="evenodd" clip-rule="evenodd" d="M95.3873 39.3895C95.3873 61.1437 77.7521 78.7789 55.9979 78.7789C34.2437 78.7789 16.6084 61.1437 16.6084 39.3895C16.6084 36.4646 16.9272 33.6142 17.5319 30.8712L0 8.23757L27.6799 12.0102C34.8416 4.60447 44.882 0 55.9979 0C67.114 0 77.1546 4.60469 84.3163 12.0107L112 8.23758L94.4648 30.8755C95.0689 33.6172 95.3873 36.4662 95.3873 39.3895ZM56.0003 66.4979C70.8987 66.4979 82.9763 54.4203 82.9763 39.5219C82.9763 24.6235 70.8987 12.5459 56.0003 12.5459C41.1018 12.5459 29.0243 24.6235 29.0243 39.5219C29.0243 54.4203 41.1018 66.4979 56.0003 66.4979ZM39.0186 27.8838H72.9767V38.5039H39.0186V27.8838ZM72.9767 41.9053H39.0186V52.5253H72.9767V41.9053Z" fill="#3EF4FF"/>
</svg>
