<svg width="28" height="28" viewBox="0 0 28 28" fill="none" xmlns="http://www.w3.org/2000/svg">
<path d="M23.118 10C22.3392 8.21646 21.057 6.69884 19.4286 5.63311C17.8001 4.56738 15.8962 3.99983 13.95 4C8.765 4 4.5 7.947 4 13" stroke="#00F1F2" stroke-width="1.5" stroke-linecap="round" stroke-linejoin="round"/>
<path d="M18.9502 10H23.3502C23.429 10 23.507 9.98448 23.5798 9.95433C23.6526 9.92417 23.7187 9.87998 23.7745 9.82426C23.8302 9.76855 23.8744 9.70241 23.9045 9.62961C23.9347 9.55681 23.9502 9.47879 23.9502 9.4V5" stroke="#00F1F2" stroke-width="1.5" stroke-linecap="round" stroke-linejoin="round"/>
<path d="M4.83105 18C6.37505 21.532 9.89905 24 13.9991 24C19.1851 24 23.4491 20.053 23.9501 15" stroke="#00F1F2" stroke-width="1.5" stroke-linecap="round" stroke-linejoin="round"/>
<path d="M9 18H4.6C4.44087 18 4.28826 18.0632 4.17574 18.1757C4.06321 18.2883 4 18.4409 4 18.6V23" stroke="#00F1F2" stroke-width="1.5" stroke-linecap="round" stroke-linejoin="round"/>
</svg>
